G04 Layer_Color=128*
%FSLAX25Y25*%
%MOIN*%
G70*
G01*
G75*
%ADD11R,0.02362X0.02165*%
%ADD14R,0.04724X0.05512*%
%ADD16R,0.27559X0.23622*%
%ADD17R,0.02441X0.02598*%
%ADD18R,0.02598X0.02441*%
%ADD19R,0.08465X0.05000*%
%ADD40R,0.05000X0.02402*%
%ADD41R,0.15000X0.15394*%
%ADD52R,0.07165X0.05000*%
%ADD53R,0.07087X0.13386*%
%ADD54R,0.11024X0.04331*%
D11*
X516732Y345669D02*
D03*
X520079D02*
D03*
X520177Y340945D02*
D03*
X516831D02*
D03*
X542126D02*
D03*
X538779D02*
D03*
X538878Y345669D02*
D03*
X542224D02*
D03*
X563878Y340945D02*
D03*
X560532D02*
D03*
Y345669D02*
D03*
X563878D02*
D03*
X612500Y422835D02*
D03*
X615846D02*
D03*
Y427953D02*
D03*
X612500D02*
D03*
D14*
X679724Y432283D02*
D03*
X673032D02*
D03*
X679724Y441535D02*
D03*
X673032D02*
D03*
D16*
X642520Y310236D02*
D03*
X644882Y432087D02*
D03*
D17*
X595276Y396299D02*
D03*
Y399764D02*
D03*
X600787Y396299D02*
D03*
Y399764D02*
D03*
D18*
X482598Y382874D02*
D03*
X479134D02*
D03*
X482598Y377953D02*
D03*
X479134D02*
D03*
X482598Y372638D02*
D03*
X479134D02*
D03*
X643071Y329921D02*
D03*
X639606D02*
D03*
X643071Y357874D02*
D03*
X639606D02*
D03*
X643071Y412992D02*
D03*
X639606D02*
D03*
D19*
X594488Y425197D02*
D03*
Y440158D02*
D03*
X561024Y331496D02*
D03*
Y316535D02*
D03*
X539764Y331496D02*
D03*
Y316535D02*
D03*
X518110Y331496D02*
D03*
Y316535D02*
D03*
D40*
X671496Y398661D02*
D03*
Y413661D02*
D03*
Y403661D02*
D03*
Y408661D02*
D03*
X692520Y398661D02*
D03*
Y413661D02*
D03*
Y403661D02*
D03*
Y408661D02*
D03*
X671496Y318622D02*
D03*
Y333622D02*
D03*
Y323622D02*
D03*
Y328622D02*
D03*
X692520Y318622D02*
D03*
Y333622D02*
D03*
Y323622D02*
D03*
Y328622D02*
D03*
X671496Y358780D02*
D03*
Y373780D02*
D03*
Y363779D02*
D03*
Y368779D02*
D03*
X692520Y358780D02*
D03*
Y373780D02*
D03*
Y363779D02*
D03*
Y368779D02*
D03*
D41*
X684496Y406161D02*
D03*
Y326122D02*
D03*
Y366280D02*
D03*
D52*
X499213Y471260D02*
D03*
Y454567D02*
D03*
X485433Y471260D02*
D03*
Y454567D02*
D03*
D53*
X631102Y372047D02*
D03*
X651575D02*
D03*
X631102Y344094D02*
D03*
X651575D02*
D03*
X631102Y400394D02*
D03*
X651575D02*
D03*
D54*
X546850Y363517D02*
D03*
Y356299D02*
D03*
Y370735D02*
D03*
Y377953D02*
D03*
M02*
