M48
;Layer_Color=9474304
;FILE_FORMAT=2:5
INCH,LZ
;TYPE=PLATED
T1F00S00C0.00787
T2F00S00C0.01575
T3F00S00C0.02756
T4F00S00C0.03150
T5F00S00C0.04331
;TYPE=NON_PLATED
T6F00S00C0.15748
%
T01
X0472244Y041752
X0476575
Y042185
X0472244
T02
X0660236Y0306693
X0623622Y0308268
X056811Y0309842
X0517717Y0311417
X0491732Y0305512
X0483465Y0300787
X0413779Y0285827
X0412205Y0333465
X046811Y0316535
X0466142Y0363779
X0459842Y0368898
X0460236Y0379134
X0458661Y0387795
X0462992Y0386614
X045689Y0394488
X0453898Y039252
X0450787Y0390158
X0446127Y0397158
X0440394Y0401732
X0443701Y0405512
X0433858Y0407874
X0435532Y0416142
X0447244Y0422441
Y0433465
X0443701Y0432677
X0445394Y0445787
X0440394Y0445039
X0427981Y0444052
X0417323Y0438189
X0420866Y0405118
X0466142Y0401575
X046752Y0410827
X0461221Y041437
X046437Y0429921
X0461811Y0433465
X0464764Y0439567
X0465748Y0462992
X0461024
X0455866Y0462598
X0451181Y0462598
X0446024Y0462638
X0471654Y0456693
X0470472Y0450394
X0473228Y0432677
X0478346Y0436614
X0482677Y0429921
X0486614Y0426772
X0492126Y0429921
X0491339Y0413779
X0495669Y0410236
X0501575Y0409219
X0506693Y040748
X0507874Y041063
X0515748Y0413779
X0515354Y0400787
X0504134Y0400197
X05Y0400787
X0497638Y0398031
X0494882Y0392913
X0491339Y0395276
Y0390551
X0490551Y0381496
X0487795Y0379134
X0485433Y0373228
X0494685Y0363189
X0497638Y0359449
X0509449Y0354724
X0512992Y0351969
X0513386Y0340945
X0524882Y0340905
X0533858Y0338976
X0546811Y0340748
X0549213Y0334646
X0546063Y0316535
X0555118
X0567717Y0316535
X0575689Y03125
X0583563
Y0319193
X0590158Y032126
X0598425Y0320866
X0599311Y03125
X0591437
X0586614Y0329134
X0575689Y0328248
X0573622Y0331496
X0581102Y0335827
X0579921Y033937
X0576772Y0341732
X0578346Y0344882
X0582677Y0348031
X0590158Y0346457
X0592126Y0343307
X0594488Y0340551
X0601575Y0340236
X0601457Y0336614
X0605315Y0348194
X0608779Y0348976
X0612697Y035561
X0617283Y0355315
X0619567Y035815
X0620433Y0366811
X0623819Y0368465
X0624016Y0378346
X0620827Y0383071
X0612047Y0388937
X0603543Y0392913
X0596063Y0392126
Y0379134
X0591732
X0587402
Y0374803
X0591732
X0596063
X0600394
Y0379134
X0604724
Y0374803
Y0370472
X0600394
X0596063
X0591732
X0587402
Y0366142
X0591732
X0596063
X0600394
X0604724
Y0361811
X0600394
X0596063
X0591732
X0587402
X0574409Y0352362
X0567323Y0355512
Y0366535
X0561417Y0367717
X0562992Y0372441
X0566142Y0374016
X0569291Y0376378
X0553937Y0374016
X0555905Y0366929
X0555118Y0359842
X0554724Y0355512
X0558661Y0351969
X0537402Y0355512
X0537008Y0362598
X0535827Y0366929
X0538976Y0370472
X0535433Y0377559
X0535039Y0388976
X0538976
X0543701Y039685
X0555512
X0566142Y0400787
X0563779Y0404724
X0561811Y0407874
X0555512Y0414961
X0543701Y0410236
X0535039Y0412205
X0531496Y041063
X0536614Y0417717
X0538976Y0425197
X0555512Y0434252
X0559449Y0437008
X0551811Y044
X0522047Y0448819
X0511811Y0429921
X0514173Y0426772
X0507087Y0432677
X0504232Y0418405
X0482776Y0410236
X0484252Y0401575
X0468898Y0387598
X0505118Y0382677
X0509055Y0385827
X0502362Y0378346
X0507874Y036811
X0514173Y0367323
X0516535Y0370079
X0520472Y0367717
X0523622Y0370472
X0524409Y0374803
X052874Y039685
X0568898Y0393701
X0581102Y0385827
Y040748
X0585039Y0403937
X0587402Y0414961
X0591339Y0414567
X0594488Y0410236
X0598721Y0412697
X0594488Y0430709
X0620472Y0427953
X062311Y0337717
X0614291Y0340709
X0614173Y0333858
X0617283Y0329055
X0623622Y032126
X0526968Y0314961
X0508268Y0313386
X0503937Y0316535
X0502165Y0319882
X0500394Y0325197
X0506693Y0326772
X0509449Y032874
X051063Y0319291
X0490551Y0334646
X0487008Y0337402
X0483858Y0340945
X0472047Y0335039
X0470079Y033189
X0478583Y0356142
X0531496Y0351969
X0504921Y0465945
X0494685Y0465748
X065748Y0464567
X0654724Y0439764
Y0435925
Y0432087
Y0428248
Y0424409
X0649803
Y0428248
Y0432087
Y0435925
Y0439764
X0644882
Y0435925
Y0432087
Y0428248
Y0424409
X0639961
Y0428248
Y0432087
Y0435925
Y0439764
X0635039Y0439764
Y0435925
Y0432087
Y0428248
Y0424409
X0631791Y0409547
X063189Y0391732
X0648819Y0388189
X0655118Y0385827
Y0390551
X0658268Y0388189
X0661811Y038189
X0659842Y0379134
X0658661Y037559
X0661417Y0373425
X0660236Y0370079
X0658661Y0362205
X066063Y0351969
X0658268Y0333858
X0657087Y0327165
X0643071Y0325118
X0638307Y0325945
X0641535Y0346969
X0639173Y034937
X0636221Y0352843
X0630866Y0356929
Y0343386
X0637835Y0367559
X0645114Y0380709
X0657087Y0411811
X0687559Y0418898
X07Y0414961
Y041063
Y0406299
Y0401968
Y0397638
X0704331
Y0401968
Y0406299
X0708661
Y0401968
Y0397638
X0712992
X0717323
Y0401968
X0712992
Y0406299
X0717323
Y041063
X0712992
X0708661
Y0414961
X0712992
X0717323
X0721654
X0721654Y041063
X0721654Y0406299
X0721654Y0401968
Y0397638
X0721654Y0375197
X0717323
X0712992
Y0370866
X0717323
X0721654
X0721654Y0366535
X0721654Y0362205
Y0357874
X0717323
Y0362205
X0712992
Y0357874
X0708661
Y0362205
Y0366535
Y0370866
X0704331
Y0375197
X07
Y0370866
Y0366535
X0704331
Y0362205
Y0357874
X07
Y0362205
X0712992Y0366535
X0717323
X0708661Y0375197
X0687402Y0378346
X0687795Y0393734
X0704331Y041063
Y0414961
X0690551Y0437008
X0687402Y0351969
X0687559Y0338583
X07Y0335433
X0704331
Y0331102
X0708661
X0712992
X0717323
Y0335433
X0712992
X0708661
Y0326772
X0712992
X0717323
Y0322441
X0712992
Y031811
X0717323
X0721654
Y0322441
X0721654Y0326772
X0721654Y0331102
X0721654Y0335433
X07Y0331102
Y0326772
X0704331
Y0322441
Y031811
X07
Y0322441
X0708661
Y031811
X0687402Y0313386
T03
X0507874Y0292913
X0515748
X0523622
X0531496
X053937
X0547244
X0571654
X0579528
X0587402
X0595276
X060315
X0611024
T04
X0630815Y0290657
X0619882Y0456496
X0612295Y0464067
X0573622Y0476378
T05
X0423622Y0323701
Y0333701
Y0343701
X0423858Y0366535
X0433858
X0443858
X0494095Y0438976
X0504095
T06
X0709449Y0295669
X0423228
Y0464567
X0709449
M30
