G04 Layer_Color=8421504*
%FSLAX25Y25*%
%MOIN*%
G70*
G01*
G75*
%ADD11R,0.02362X0.02165*%
%ADD12R,0.02402X0.05000*%
%ADD13R,0.15394X0.15000*%
%ADD14R,0.04724X0.05512*%
%ADD15R,0.05512X0.04724*%
%ADD16R,0.27559X0.23622*%
%ADD17R,0.02441X0.02598*%
%ADD18R,0.02598X0.02441*%
%ADD19R,0.08465X0.05000*%
%ADD20R,0.07283X0.03543*%
%ADD21R,0.07283X0.12598*%
%ADD22R,0.14173X0.05905*%
%ADD23R,0.05000X0.08465*%
%ADD24R,0.01575X0.05315*%
%ADD25R,0.01575X0.05335*%
%ADD26R,0.08268X0.06299*%
%ADD27R,0.07087X0.07480*%
%ADD28R,0.07480X0.07480*%
%ADD29R,0.02165X0.02362*%
%ADD30R,0.02362X0.03937*%
%ADD31R,0.03150X0.02165*%
%ADD32R,0.01968X0.01181*%
%ADD33R,0.01181X0.01968*%
%ADD34R,0.08268X0.08268*%
%ADD35R,0.03150X0.03150*%
%ADD36R,0.01181X0.05709*%
%ADD37R,0.05709X0.01181*%
%ADD38R,0.09842X0.12402*%
%ADD39R,0.20354X0.20354*%
%ADD40R,0.05000X0.02402*%
%ADD41R,0.15000X0.15394*%
%ADD42R,0.03000X0.11000*%
D11*
X455020Y433465D02*
D03*
X458366D02*
D03*
X435532Y432677D02*
D03*
X432185D02*
D03*
X435532Y426772D02*
D03*
X432185D02*
D03*
X598622Y421654D02*
D03*
X601968D02*
D03*
X564075Y351969D02*
D03*
X567421D02*
D03*
X564075Y347441D02*
D03*
X567421D02*
D03*
X435532Y438583D02*
D03*
X432185D02*
D03*
X435532Y412205D02*
D03*
X432185D02*
D03*
X435532Y444095D02*
D03*
X432185D02*
D03*
X654035Y464567D02*
D03*
X650689D02*
D03*
X435532Y396063D02*
D03*
X432185D02*
D03*
X602067Y416142D02*
D03*
X598721D02*
D03*
X490551Y300787D02*
D03*
X487205D02*
D03*
D12*
X666409Y430035D02*
D03*
X681410D02*
D03*
X671410D02*
D03*
X676409D02*
D03*
X666409Y451059D02*
D03*
X681410D02*
D03*
X671410D02*
D03*
X676409D02*
D03*
D13*
X673910Y443035D02*
D03*
D14*
X647598Y356929D02*
D03*
X654291D02*
D03*
X474606Y379134D02*
D03*
X481299D02*
D03*
X584055Y425984D02*
D03*
X590748D02*
D03*
X619882Y450394D02*
D03*
X613189D02*
D03*
X474606Y368898D02*
D03*
X481299D02*
D03*
X647598Y343386D02*
D03*
X654291D02*
D03*
D15*
X616929Y397835D02*
D03*
Y404528D02*
D03*
X586614Y333268D02*
D03*
Y339961D02*
D03*
X626772Y404528D02*
D03*
Y397835D02*
D03*
X607087Y397835D02*
D03*
Y404528D02*
D03*
X573622Y470669D02*
D03*
Y463976D02*
D03*
X454724Y414370D02*
D03*
Y421063D02*
D03*
X470472Y444291D02*
D03*
Y437598D02*
D03*
X592126Y397835D02*
D03*
Y404528D02*
D03*
X649606Y402165D02*
D03*
Y408858D02*
D03*
D16*
X710236Y406055D02*
D03*
Y326378D02*
D03*
Y366173D02*
D03*
D17*
X512008Y407244D02*
D03*
Y403780D02*
D03*
X555512Y443465D02*
D03*
Y440000D02*
D03*
X585039Y396693D02*
D03*
Y400157D02*
D03*
D18*
X542677Y380315D02*
D03*
X539213D02*
D03*
X482047Y360236D02*
D03*
X478583D02*
D03*
X513150Y421654D02*
D03*
X509685D02*
D03*
X539213Y385827D02*
D03*
X542677D02*
D03*
D19*
X533858Y471654D02*
D03*
Y456693D02*
D03*
X553150Y471654D02*
D03*
Y456693D02*
D03*
X706693Y446713D02*
D03*
Y433602D02*
D03*
D20*
X545965Y425197D02*
D03*
Y434252D02*
D03*
Y443307D02*
D03*
D21*
X521752Y434252D02*
D03*
D22*
X573622Y438882D02*
D03*
Y450882D02*
D03*
D23*
X605905Y464067D02*
D03*
X590945D02*
D03*
D24*
X504921Y461417D02*
D03*
X499803D02*
D03*
X494685D02*
D03*
X497244D02*
D03*
D25*
X502362D02*
D03*
D26*
X512008Y461909D02*
D03*
X487598Y461909D02*
D03*
D27*
X514764Y471949D02*
D03*
X484842Y471949D02*
D03*
D28*
X504528Y471949D02*
D03*
X495079D02*
D03*
D29*
X606299Y442224D02*
D03*
Y438878D02*
D03*
X595276Y315846D02*
D03*
Y312500D02*
D03*
X587402Y315846D02*
D03*
Y312500D02*
D03*
X579528Y315846D02*
D03*
Y312500D02*
D03*
X603150Y315846D02*
D03*
Y312500D02*
D03*
X490551Y287697D02*
D03*
Y291043D02*
D03*
X599606Y399705D02*
D03*
Y396358D02*
D03*
X690551Y433563D02*
D03*
Y430217D02*
D03*
D30*
X590748Y445669D02*
D03*
X594488D02*
D03*
X598228D02*
D03*
Y434842D02*
D03*
X594488D02*
D03*
X590748D02*
D03*
D31*
X417323Y434252D02*
D03*
X423622D02*
D03*
X417323Y430709D02*
D03*
X423622D02*
D03*
D32*
X483268Y415846D02*
D03*
Y418405D02*
D03*
Y420965D02*
D03*
Y423524D02*
D03*
X465551D02*
D03*
Y420965D02*
D03*
Y418405D02*
D03*
Y415846D02*
D03*
D33*
X478248Y428543D02*
D03*
X475689D02*
D03*
X473130D02*
D03*
X470571D02*
D03*
Y410827D02*
D03*
X473130D02*
D03*
X475689D02*
D03*
X478248D02*
D03*
D34*
X474409Y419685D02*
D03*
D35*
X423032Y412402D02*
D03*
X417126D02*
D03*
X636811Y464567D02*
D03*
X630905D02*
D03*
X423032Y396063D02*
D03*
X417126D02*
D03*
D36*
X502165Y394193D02*
D03*
X504134D02*
D03*
X506102D02*
D03*
X508071D02*
D03*
X510039D02*
D03*
X512008D02*
D03*
X513976D02*
D03*
X515945D02*
D03*
X517913D02*
D03*
X519882D02*
D03*
X521850D02*
D03*
X523819D02*
D03*
Y360925D02*
D03*
X521850D02*
D03*
X519882D02*
D03*
X517913D02*
D03*
X515945D02*
D03*
X513976D02*
D03*
X512008D02*
D03*
X510039D02*
D03*
X508071D02*
D03*
X506102D02*
D03*
X504134D02*
D03*
X502165D02*
D03*
X585236Y353839D02*
D03*
X587205D02*
D03*
X589173D02*
D03*
X591142D02*
D03*
X593110D02*
D03*
X595079D02*
D03*
X597047D02*
D03*
X599016D02*
D03*
X600984D02*
D03*
X602953D02*
D03*
X604921D02*
D03*
X606890D02*
D03*
Y387106D02*
D03*
X604921D02*
D03*
X602953D02*
D03*
X600984D02*
D03*
X599016D02*
D03*
X597047D02*
D03*
X595079D02*
D03*
X593110D02*
D03*
X591142D02*
D03*
X589173D02*
D03*
X587205D02*
D03*
X585236D02*
D03*
D37*
X529626Y388386D02*
D03*
Y386417D02*
D03*
Y384449D02*
D03*
Y382480D02*
D03*
Y380512D02*
D03*
Y378543D02*
D03*
Y376575D02*
D03*
Y374606D02*
D03*
Y372638D02*
D03*
Y370669D02*
D03*
Y368701D02*
D03*
Y366732D02*
D03*
X496358D02*
D03*
Y368701D02*
D03*
Y370669D02*
D03*
Y372638D02*
D03*
Y374606D02*
D03*
Y376575D02*
D03*
Y378543D02*
D03*
Y380512D02*
D03*
Y382480D02*
D03*
Y384449D02*
D03*
Y386417D02*
D03*
Y388386D02*
D03*
X579429Y381299D02*
D03*
Y379331D02*
D03*
Y377362D02*
D03*
Y375394D02*
D03*
Y373425D02*
D03*
Y371457D02*
D03*
Y369488D02*
D03*
Y367520D02*
D03*
Y365551D02*
D03*
Y363583D02*
D03*
Y361614D02*
D03*
Y359646D02*
D03*
X612697D02*
D03*
Y361614D02*
D03*
Y363583D02*
D03*
Y365551D02*
D03*
Y367520D02*
D03*
Y369488D02*
D03*
Y371457D02*
D03*
Y373425D02*
D03*
Y375394D02*
D03*
Y377362D02*
D03*
Y379331D02*
D03*
Y381299D02*
D03*
D38*
X646063Y297638D02*
D03*
X668110D02*
D03*
D39*
X596063Y370472D02*
D03*
D40*
X687559Y318858D02*
D03*
Y333858D02*
D03*
Y323858D02*
D03*
Y328858D02*
D03*
X666536Y318858D02*
D03*
Y333858D02*
D03*
Y323858D02*
D03*
Y328858D02*
D03*
X687559Y399055D02*
D03*
Y414055D02*
D03*
Y404055D02*
D03*
Y409055D02*
D03*
X666536Y399055D02*
D03*
Y414055D02*
D03*
Y404055D02*
D03*
Y409055D02*
D03*
X687559Y359173D02*
D03*
Y374173D02*
D03*
Y364173D02*
D03*
Y369173D02*
D03*
X666536Y359173D02*
D03*
Y374173D02*
D03*
Y364173D02*
D03*
Y369173D02*
D03*
D41*
X674559Y326358D02*
D03*
Y406555D02*
D03*
Y366673D02*
D03*
D42*
X446024Y454724D02*
D03*
X451024D02*
D03*
X456024D02*
D03*
X461024D02*
D03*
X466024D02*
D03*
Y470709D02*
D03*
X461024D02*
D03*
X456024D02*
D03*
X451024D02*
D03*
X446024D02*
D03*
M02*
