G04 Layer_Color=65535*
%FSLAX25Y25*%
%MOIN*%
G70*
G01*
G75*
%ADD10C,0.01000*%
%ADD45C,0.01968*%
%ADD55C,0.00984*%
%ADD56C,0.02362*%
%ADD57C,0.00197*%
%ADD58C,0.00787*%
%ADD59C,0.00051*%
%ADD60C,0.00591*%
G36*
X482407Y331301D02*
X482530Y331278D01*
X482645Y331240D01*
X482653D01*
X482668Y331232D01*
X482699Y331217D01*
X482729Y331194D01*
X482806Y331132D01*
X482875Y331048D01*
Y331040D01*
X482891Y331025D01*
X482898Y331002D01*
X482914Y330971D01*
X482952Y330879D01*
X482975Y330771D01*
Y330764D01*
X482983Y330748D01*
Y330718D01*
X482990Y330672D01*
Y330625D01*
Y330564D01*
X482983Y330433D01*
X482430Y330272D01*
Y330280D01*
Y330288D01*
Y330334D01*
X482422Y330387D01*
X482414Y330441D01*
Y330456D01*
X482407Y330487D01*
X482391Y330533D01*
X482368Y330595D01*
Y330602D01*
X482361Y330610D01*
X482345Y330641D01*
X482315Y330687D01*
X482268Y330725D01*
X482253Y330733D01*
X482222Y330748D01*
X482169Y330764D01*
X482100Y330771D01*
X482077D01*
X482046Y330764D01*
X482007D01*
X481915Y330733D01*
X481869Y330710D01*
X481823Y330679D01*
X481815D01*
X481808Y330664D01*
X481785Y330641D01*
X481762Y330618D01*
X481700Y330541D01*
X481654Y330433D01*
Y330426D01*
X481646Y330410D01*
Y330380D01*
Y330341D01*
Y330295D01*
X481662Y330249D01*
X481685Y330203D01*
X481723Y330157D01*
X482222Y329658D01*
X482238Y329642D01*
X482268Y329604D01*
X482307Y329550D01*
X482353Y329489D01*
X482361Y329473D01*
X482384Y329435D01*
X482414Y329374D01*
X482445Y329297D01*
Y329289D01*
X482453Y329281D01*
X482460Y329258D01*
Y329228D01*
X482476Y329151D01*
Y329059D01*
Y329051D01*
Y329036D01*
X482468Y329013D01*
Y328974D01*
X482453Y328882D01*
X482422Y328774D01*
Y328767D01*
X482414Y328759D01*
X482407Y328736D01*
X482391Y328705D01*
X482361Y328629D01*
X482307Y328536D01*
X482238Y328429D01*
X482153Y328321D01*
X482046Y328222D01*
X481923Y328129D01*
X481908Y328122D01*
X481861Y328099D01*
X481792Y328060D01*
X481693Y328022D01*
X481577Y327976D01*
X481439Y327945D01*
X481285Y327914D01*
X481124Y327907D01*
X481109D01*
X481055Y327914D01*
X480986Y327922D01*
X480901Y327937D01*
X480802Y327968D01*
X480710Y328007D01*
X480625Y328068D01*
X480548Y328145D01*
X480541Y328160D01*
X480525Y328191D01*
X480502Y328245D01*
X480471Y328314D01*
X480448Y328406D01*
X480425Y328513D01*
X480418Y328636D01*
X480425Y328774D01*
X480986Y328943D01*
Y328936D01*
Y328920D01*
Y328897D01*
X480994Y328867D01*
X481009Y328782D01*
X481032Y328698D01*
X481070Y328606D01*
X481124Y328521D01*
X481163Y328490D01*
X481201Y328467D01*
X481255Y328452D01*
X481309Y328444D01*
X481339D01*
X481362Y328452D01*
X481401D01*
X481493Y328483D01*
X481539Y328498D01*
X481585Y328529D01*
X481593Y328536D01*
X481600Y328544D01*
X481623Y328567D01*
X481646Y328598D01*
X481708Y328675D01*
X481754Y328774D01*
Y328782D01*
X481762Y328813D01*
X481769Y328859D01*
X481777Y328913D01*
Y328974D01*
Y329036D01*
X481754Y329097D01*
X481723Y329158D01*
X481224Y329658D01*
X481209Y329673D01*
X481178Y329704D01*
X481132Y329750D01*
X481086Y329796D01*
X481078Y329811D01*
X481055Y329842D01*
X481024Y329896D01*
X480986Y329957D01*
Y329965D01*
X480978Y329973D01*
X480971Y330019D01*
X480955Y330088D01*
X480948Y330172D01*
Y330180D01*
Y330195D01*
Y330218D01*
X480955Y330249D01*
X480971Y330334D01*
X480994Y330433D01*
Y330441D01*
X481001Y330449D01*
X481009Y330472D01*
X481024Y330503D01*
X481055Y330579D01*
X481109Y330679D01*
X481178Y330779D01*
X481262Y330894D01*
X481362Y330994D01*
X481485Y331086D01*
X481493D01*
X481500Y331094D01*
X481547Y331125D01*
X481616Y331155D01*
X481716Y331201D01*
X481831Y331240D01*
X481969Y331278D01*
X482123Y331301D01*
X482284Y331309D01*
X482361D01*
X482407Y331301D01*
D02*
G37*
G36*
X471578Y332630D02*
X471647Y332622D01*
X471732Y332614D01*
X471816Y332599D01*
X471908Y332568D01*
X471985Y332538D01*
X471993Y332530D01*
X472016Y332522D01*
X472054Y332499D01*
X472100Y332469D01*
X472146Y332430D01*
X472192Y332376D01*
X472238Y332323D01*
X472277Y332254D01*
X472285Y332246D01*
X472292Y332223D01*
X472300Y332184D01*
X472315Y332131D01*
X472331Y332069D01*
X472346Y331992D01*
X472354Y331908D01*
Y331816D01*
Y331808D01*
Y331770D01*
X472346Y331724D01*
X472338Y331655D01*
X472323Y331570D01*
X472308Y331470D01*
X472277Y331363D01*
X472246Y331240D01*
Y331232D01*
X472238Y331209D01*
X472223Y331163D01*
X472200Y331102D01*
X471532D01*
X471586Y331240D01*
Y331247D01*
X471593Y331271D01*
X471601Y331294D01*
X471609Y331332D01*
X471632Y331424D01*
X471655Y331516D01*
Y331524D01*
X471662Y331539D01*
Y331562D01*
X471670Y331593D01*
X471678Y331670D01*
X471686Y331754D01*
Y331762D01*
Y331777D01*
Y331823D01*
X471670Y331877D01*
X471647Y331939D01*
X471639Y331954D01*
X471616Y331977D01*
X471578Y332015D01*
X471517Y332046D01*
X471509D01*
X471501Y332054D01*
X471478Y332062D01*
X471455Y332069D01*
X471371Y332085D01*
X471271Y332092D01*
X471202D01*
X471148Y332085D01*
X471033Y332062D01*
X470910Y332015D01*
X470902D01*
X470887Y332000D01*
X470856Y331985D01*
X470818Y331962D01*
X470725Y331893D01*
X470626Y331800D01*
X470618Y331793D01*
X470603Y331777D01*
X470580Y331747D01*
X470556Y331708D01*
X470518Y331662D01*
X470480Y331616D01*
X470411Y331493D01*
Y331486D01*
X470395Y331463D01*
X470380Y331432D01*
X470357Y331378D01*
X470334Y331324D01*
X470311Y331255D01*
X470280Y331186D01*
X470249Y331102D01*
X469742Y329604D01*
Y329596D01*
X469735Y329573D01*
X469719Y329542D01*
X469704Y329504D01*
X469673Y329412D01*
X469643Y329304D01*
Y329297D01*
X469635Y329281D01*
Y329258D01*
X469627Y329220D01*
X469604Y329135D01*
X469589Y329036D01*
Y329028D01*
Y329013D01*
X469581Y328990D01*
Y328951D01*
X469573Y328874D01*
X469581Y328798D01*
Y328790D01*
Y328782D01*
X469596Y328736D01*
X469612Y328675D01*
X469635Y328613D01*
X469643Y328598D01*
X469673Y328567D01*
X469712Y328521D01*
X469773Y328483D01*
X469781D01*
X469789Y328475D01*
X469812Y328467D01*
X469835D01*
X469911Y328452D01*
X470011Y328444D01*
X470073D01*
X470111Y328452D01*
X470211Y328467D01*
X470318Y328506D01*
X470326D01*
X470341Y328521D01*
X470372Y328536D01*
X470403Y328552D01*
X470487Y328606D01*
X470564Y328675D01*
X470572Y328682D01*
X470580Y328698D01*
X470603Y328721D01*
X470633Y328751D01*
X470695Y328828D01*
X470764Y328936D01*
X470772Y328943D01*
X470779Y328966D01*
X470802Y328997D01*
X470825Y329036D01*
X470879Y329135D01*
X470933Y329251D01*
Y329258D01*
X470948Y329281D01*
X470956Y329312D01*
X470979Y329350D01*
X470994Y329404D01*
X471017Y329466D01*
X471063Y329604D01*
X471125Y329773D01*
X470457D01*
X470626Y330264D01*
X471954D01*
X471163Y327953D01*
X470672D01*
Y328444D01*
X470664Y328437D01*
X470656Y328421D01*
X470633Y328398D01*
X470603Y328360D01*
X470526Y328275D01*
X470426Y328175D01*
X470303Y328076D01*
X470157Y327991D01*
X470080Y327953D01*
X469996Y327930D01*
X469911Y327914D01*
X469827Y327907D01*
X469773D01*
X469712Y327914D01*
X469643D01*
X469558Y327930D01*
X469466Y327945D01*
X469382Y327960D01*
X469297Y327991D01*
X469289Y327999D01*
X469266Y328007D01*
X469228Y328030D01*
X469182Y328060D01*
X469090Y328137D01*
X469036Y328183D01*
X468997Y328237D01*
Y328245D01*
X468982Y328268D01*
X468967Y328298D01*
X468951Y328344D01*
X468936Y328406D01*
X468913Y328475D01*
X468905Y328552D01*
X468898Y328636D01*
Y328644D01*
Y328675D01*
Y328728D01*
X468905Y328790D01*
X468913Y328867D01*
X468921Y328951D01*
X468936Y329043D01*
X468951Y329143D01*
Y329158D01*
X468967Y329189D01*
X468974Y329243D01*
X468997Y329320D01*
X469021Y329412D01*
X469051Y329520D01*
X469090Y329635D01*
X469128Y329758D01*
X469527Y330933D01*
Y330940D01*
X469535Y330956D01*
X469543Y330979D01*
X469558Y331009D01*
X469589Y331094D01*
X469643Y331201D01*
X469704Y331332D01*
X469781Y331470D01*
X469873Y331624D01*
X469988Y331785D01*
X470111Y331946D01*
X470257Y332100D01*
X470411Y332246D01*
X470587Y332369D01*
X470779Y332484D01*
X470987Y332561D01*
X471102Y332599D01*
X471217Y332622D01*
X471340Y332630D01*
X471463Y332638D01*
X471517D01*
X471578Y332630D01*
D02*
G37*
G36*
X491638D02*
X491715Y332622D01*
X491799Y332614D01*
X491884Y332599D01*
X491976Y332568D01*
X492053Y332538D01*
X492061Y332530D01*
X492084Y332522D01*
X492122Y332499D01*
X492168Y332469D01*
X492214Y332430D01*
X492260Y332384D01*
X492306Y332323D01*
X492337Y332261D01*
Y332254D01*
X492352Y332230D01*
X492360Y332192D01*
X492375Y332138D01*
X492383Y332077D01*
X492398Y332000D01*
Y331923D01*
Y331831D01*
Y331823D01*
Y331785D01*
X492391Y331739D01*
X492383Y331670D01*
X492368Y331585D01*
X492352Y331486D01*
X492322Y331378D01*
X492291Y331255D01*
Y331247D01*
X492276Y331217D01*
X492260Y331171D01*
X492237Y331102D01*
X491577D01*
X491623Y331247D01*
Y331255D01*
X491630Y331271D01*
X491638Y331294D01*
X491646Y331332D01*
X491669Y331401D01*
X491692Y331478D01*
Y331486D01*
X491700Y331493D01*
X491707Y331539D01*
X491723Y331601D01*
X491738Y331678D01*
Y331685D01*
Y331693D01*
X491746Y331739D01*
X491738Y331800D01*
X491730Y331854D01*
Y331870D01*
X491715Y331893D01*
X491700Y331939D01*
X491669Y331977D01*
X491661Y331985D01*
X491638Y332008D01*
X491600Y332038D01*
X491546Y332062D01*
X491531Y332069D01*
X491492Y332077D01*
X491423Y332085D01*
X491339Y332092D01*
X491277D01*
X491239Y332085D01*
X491147Y332069D01*
X491047Y332038D01*
X491039D01*
X491024Y332031D01*
X491001Y332023D01*
X490970Y332008D01*
X490901Y331962D01*
X490824Y331908D01*
X490816D01*
X490809Y331893D01*
X490770Y331854D01*
X490709Y331785D01*
X490647Y331693D01*
Y331685D01*
X490632Y331670D01*
X490617Y331639D01*
X490601Y331608D01*
X490555Y331524D01*
X490509Y331424D01*
Y331416D01*
X490501Y331401D01*
X490486Y331370D01*
X490478Y331332D01*
X490455Y331286D01*
X490440Y331232D01*
X490394Y331102D01*
X489826Y329443D01*
Y329435D01*
X489818Y329412D01*
X489810Y329381D01*
X489795Y329343D01*
X489764Y329243D01*
X489741Y329135D01*
Y329128D01*
X489734Y329112D01*
Y329089D01*
X489726Y329051D01*
X489710Y328966D01*
X489703Y328867D01*
Y328859D01*
Y328844D01*
Y328821D01*
X489710Y328790D01*
X489718Y328721D01*
X489734Y328644D01*
X489741Y328629D01*
X489764Y328598D01*
X489803Y328544D01*
X489864Y328498D01*
X489872D01*
X489879Y328490D01*
X489902Y328483D01*
X489925Y328475D01*
X490002Y328452D01*
X490102Y328444D01*
X490156D01*
X490194Y328452D01*
X490279Y328467D01*
X490371Y328498D01*
X490379D01*
X490394Y328506D01*
X490417Y328521D01*
X490448Y328536D01*
X490517Y328583D01*
X490594Y328644D01*
X490601Y328652D01*
X490609Y328659D01*
X490647Y328705D01*
X490701Y328782D01*
X490763Y328874D01*
X490770Y328882D01*
X490778Y328897D01*
X490793Y328928D01*
X490809Y328959D01*
X490855Y329043D01*
X490901Y329143D01*
Y329151D01*
X490908Y329166D01*
X490924Y329197D01*
X490939Y329228D01*
X490955Y329274D01*
X490970Y329328D01*
X491016Y329443D01*
X491070Y329604D01*
X491730D01*
X491677Y329443D01*
Y329435D01*
X491669Y329427D01*
X491653Y329381D01*
X491630Y329312D01*
X491592Y329228D01*
X491554Y329128D01*
X491508Y329020D01*
X491454Y328913D01*
X491392Y328805D01*
X491385Y328790D01*
X491362Y328759D01*
X491331Y328713D01*
X491292Y328644D01*
X491239Y328575D01*
X491170Y328490D01*
X491101Y328406D01*
X491024Y328329D01*
X491016Y328321D01*
X490985Y328298D01*
X490947Y328260D01*
X490885Y328214D01*
X490816Y328160D01*
X490732Y328106D01*
X490632Y328060D01*
X490532Y328014D01*
X490517Y328007D01*
X490486Y327999D01*
X490425Y327983D01*
X490356Y327960D01*
X490263Y327937D01*
X490156Y327922D01*
X490041Y327914D01*
X489918Y327907D01*
X489872D01*
X489818Y327914D01*
X489749D01*
X489672Y327922D01*
X489588Y327937D01*
X489503Y327960D01*
X489426Y327983D01*
X489419Y327991D01*
X489396Y327999D01*
X489357Y328022D01*
X489319Y328045D01*
X489227Y328114D01*
X489181Y328160D01*
X489142Y328214D01*
Y328222D01*
X489127Y328237D01*
X489111Y328275D01*
X489096Y328314D01*
X489073Y328367D01*
X489058Y328429D01*
X489042Y328498D01*
X489035Y328575D01*
Y328583D01*
Y328613D01*
Y328659D01*
Y328721D01*
Y328790D01*
X489042Y328867D01*
X489065Y329043D01*
Y329059D01*
X489073Y329089D01*
X489088Y329143D01*
X489104Y329212D01*
X489127Y329297D01*
X489150Y329389D01*
X489181Y329496D01*
X489219Y329612D01*
X489672Y330933D01*
X489680Y330948D01*
X489687Y330986D01*
X489710Y331048D01*
X489741Y331125D01*
X489772Y331209D01*
X489810Y331301D01*
X489895Y331493D01*
X489902Y331509D01*
X489918Y331539D01*
X489941Y331585D01*
X489979Y331647D01*
X490018Y331716D01*
X490064Y331800D01*
X490179Y331962D01*
X490187Y331969D01*
X490210Y332000D01*
X490240Y332038D01*
X490286Y332092D01*
X490340Y332146D01*
X490402Y332215D01*
X490540Y332330D01*
X490548Y332338D01*
X490571Y332353D01*
X490617Y332384D01*
X490670Y332415D01*
X490732Y332446D01*
X490809Y332484D01*
X490885Y332522D01*
X490978Y332553D01*
X490993Y332561D01*
X491024Y332568D01*
X491070Y332584D01*
X491139Y332599D01*
X491223Y332614D01*
X491316Y332622D01*
X491415Y332638D01*
X491577D01*
X491638Y332630D01*
D02*
G37*
G36*
X486884Y332092D02*
X485724D01*
X485210Y330602D01*
X486039D01*
X485870Y330103D01*
X485041D01*
X484480Y328444D01*
X485640D01*
X485471Y327953D01*
X483651D01*
X485225Y332592D01*
X487053D01*
X486884Y332092D01*
D02*
G37*
G36*
X475833Y330940D02*
X475840Y330948D01*
X475856Y330956D01*
X475902Y330994D01*
X475963Y331040D01*
X476017Y331079D01*
X476032Y331086D01*
X476063Y331109D01*
X476117Y331140D01*
X476186Y331186D01*
X476194D01*
X476209Y331194D01*
X476232Y331209D01*
X476255Y331224D01*
X476332Y331255D01*
X476409Y331278D01*
X476416D01*
X476424Y331286D01*
X476447D01*
X476478Y331294D01*
X476547Y331301D01*
X476631Y331309D01*
X476693D01*
X476731Y331301D01*
X476823Y331286D01*
X476908Y331247D01*
X476916D01*
X476923Y331240D01*
X476969Y331209D01*
X477031Y331163D01*
X477077Y331102D01*
X477084Y331086D01*
X477100Y331063D01*
X477108Y331040D01*
X477131Y330963D01*
X477138Y330856D01*
Y330848D01*
Y330825D01*
Y330794D01*
Y330756D01*
Y330664D01*
X477131Y330564D01*
Y330556D01*
Y330541D01*
X477123Y330510D01*
X477115Y330472D01*
X477108Y330426D01*
X477092Y330364D01*
X477077Y330295D01*
X477054Y330218D01*
Y330211D01*
X477046Y330180D01*
X477038Y330142D01*
X477023Y330088D01*
X476992Y329973D01*
X476969Y329911D01*
X476954Y329857D01*
Y329850D01*
X476946Y329834D01*
X476939Y329804D01*
X476923Y329765D01*
X476900Y329712D01*
X476885Y329650D01*
X476862Y329573D01*
X476831Y329489D01*
X476816Y329443D01*
Y329435D01*
X476800Y329404D01*
X476785Y329366D01*
X476770Y329312D01*
X476739Y329243D01*
X476716Y329174D01*
X476647Y329020D01*
Y329013D01*
X476631Y328990D01*
X476616Y328943D01*
X476585Y328897D01*
X476555Y328836D01*
X476524Y328767D01*
X476432Y328613D01*
X476424Y328606D01*
X476409Y328583D01*
X476386Y328536D01*
X476347Y328490D01*
X476263Y328375D01*
X476155Y328252D01*
X476148Y328245D01*
X476132Y328229D01*
X476101Y328199D01*
X476063Y328160D01*
X476017Y328122D01*
X475963Y328083D01*
X475833Y327999D01*
X475825D01*
X475802Y327983D01*
X475764Y327968D01*
X475717Y327953D01*
X475664Y327937D01*
X475602Y327922D01*
X475533Y327914D01*
X475464Y327907D01*
X475433D01*
X475395Y327914D01*
X475349Y327922D01*
X475241Y327945D01*
X475180Y327968D01*
X475134Y327999D01*
X475126Y328007D01*
X475111Y328014D01*
X475088Y328037D01*
X475065Y328068D01*
X474988Y328145D01*
X474919Y328252D01*
X474811Y327953D01*
X474151D01*
X475725Y332592D01*
X476393D01*
X475833Y330940D01*
D02*
G37*
G36*
X479066Y331301D02*
X479181Y331286D01*
X479296Y331255D01*
X479304D01*
X479319Y331247D01*
X479350Y331232D01*
X479381Y331217D01*
X479450Y331163D01*
X479511Y331086D01*
Y331079D01*
X479519Y331071D01*
X479534Y331048D01*
X479550Y331017D01*
X479580Y330940D01*
X479604Y330840D01*
Y330833D01*
Y330817D01*
X479611Y330787D01*
Y330748D01*
Y330695D01*
Y330641D01*
X479596Y330503D01*
Y330495D01*
X479588Y330472D01*
X479580Y330433D01*
X479573Y330380D01*
X479565Y330326D01*
X479550Y330257D01*
X479511Y330118D01*
Y330111D01*
X479504Y330088D01*
X479496Y330049D01*
X479481Y329996D01*
X479458Y329934D01*
X479435Y329857D01*
X479412Y329781D01*
X479381Y329688D01*
X479358Y329604D01*
X478029D01*
X477975Y329443D01*
Y329435D01*
X477968Y329412D01*
X477952Y329381D01*
X477937Y329335D01*
Y329328D01*
X477929Y329320D01*
X477914Y329274D01*
X477891Y329212D01*
X477868Y329135D01*
Y329128D01*
X477860Y329120D01*
X477852Y329074D01*
X477830Y329013D01*
X477806Y328936D01*
Y328928D01*
Y328920D01*
X477791Y328874D01*
X477783Y328813D01*
X477776Y328744D01*
Y328728D01*
Y328690D01*
Y328644D01*
Y328590D01*
Y328583D01*
X477791Y328552D01*
X477806Y328513D01*
X477837Y328483D01*
X477845Y328475D01*
X477868Y328467D01*
X477914Y328452D01*
X477968Y328444D01*
X477983D01*
X478029Y328452D01*
X478083Y328460D01*
X478144Y328483D01*
X478152D01*
X478160Y328490D01*
X478198Y328513D01*
X478244Y328552D01*
X478290Y328606D01*
Y328613D01*
X478298Y328621D01*
X478329Y328659D01*
X478359Y328713D01*
X478390Y328767D01*
Y328774D01*
X478398Y328782D01*
X478413Y328821D01*
X478444Y328890D01*
X478475Y328966D01*
X478521Y329112D01*
X479181D01*
X479135Y328974D01*
Y328966D01*
X479127Y328951D01*
X479112Y328920D01*
X479097Y328890D01*
X479081Y328844D01*
X479058Y328790D01*
X478997Y328675D01*
X478920Y328544D01*
X478828Y328414D01*
X478720Y328291D01*
X478605Y328175D01*
X478590Y328168D01*
X478544Y328137D01*
X478475Y328091D01*
X478375Y328045D01*
X478260Y327991D01*
X478114Y327953D01*
X477952Y327922D01*
X477776Y327907D01*
X477737D01*
X477691Y327914D01*
X477637D01*
X477507Y327937D01*
X477446Y327960D01*
X477384Y327983D01*
X477376Y327991D01*
X477361Y327999D01*
X477338Y328014D01*
X477307Y328045D01*
X477238Y328106D01*
X477200Y328152D01*
X477177Y328199D01*
Y328206D01*
X477169Y328222D01*
X477161Y328252D01*
X477146Y328291D01*
X477138Y328344D01*
X477131Y328406D01*
X477123Y328467D01*
Y328544D01*
Y328552D01*
Y328583D01*
X477131Y328621D01*
Y328675D01*
X477138Y328736D01*
X477146Y328805D01*
X477177Y328959D01*
Y328966D01*
X477184Y328997D01*
X477200Y329043D01*
X477215Y329097D01*
X477230Y329174D01*
X477253Y329251D01*
X477284Y329350D01*
X477315Y329450D01*
Y329458D01*
X477323Y329489D01*
X477338Y329527D01*
X477353Y329589D01*
X477376Y329650D01*
X477399Y329719D01*
X477461Y329880D01*
X477468Y329896D01*
X477476Y329926D01*
X477492Y329973D01*
X477522Y330034D01*
X477545Y330111D01*
X477576Y330188D01*
X477645Y330341D01*
X477653Y330349D01*
X477661Y330372D01*
X477684Y330418D01*
X477714Y330464D01*
X477745Y330526D01*
X477783Y330595D01*
X477876Y330733D01*
X477883Y330741D01*
X477899Y330764D01*
X477922Y330802D01*
X477960Y330840D01*
X478045Y330940D01*
X478152Y331040D01*
X478160Y331048D01*
X478183Y331063D01*
X478214Y331086D01*
X478252Y331109D01*
X478306Y331140D01*
X478367Y331171D01*
X478505Y331232D01*
X478513D01*
X478544Y331247D01*
X478582Y331255D01*
X478636Y331271D01*
X478697Y331286D01*
X478774Y331294D01*
X478943Y331309D01*
X479020D01*
X479066Y331301D01*
D02*
G37*
G36*
X473805D02*
X473882Y331294D01*
X473982Y331271D01*
X474089Y331240D01*
X474189Y331186D01*
X474281Y331117D01*
X474358Y331025D01*
X474366Y331009D01*
X474381Y330971D01*
X474404Y330910D01*
X474427Y330825D01*
X474435Y330718D01*
Y330587D01*
X474420Y330441D01*
X474373Y330272D01*
X473867Y328774D01*
Y328767D01*
X473859Y328751D01*
X473851Y328728D01*
X473836Y328690D01*
X473828Y328644D01*
X473813Y328598D01*
X473774Y328483D01*
X473744Y328344D01*
X473705Y328214D01*
X473682Y328076D01*
X473667Y327953D01*
X473006D01*
X473090Y328436D01*
X473091Y328437D01*
Y328444D01*
X473090Y328436D01*
X473076Y328429D01*
X473037Y328391D01*
X472991Y328337D01*
X472945Y328283D01*
X472937Y328275D01*
X472914Y328245D01*
X472868Y328199D01*
X472807Y328145D01*
X472799D01*
X472791Y328129D01*
X472753Y328099D01*
X472699Y328053D01*
X472638Y328014D01*
X472622Y328007D01*
X472584Y327991D01*
X472530Y327960D01*
X472453Y327937D01*
X472446D01*
X472438Y327930D01*
X472392Y327922D01*
X472323Y327914D01*
X472238Y327907D01*
X472223D01*
X472192Y327914D01*
X472146Y327922D01*
X472085Y327937D01*
X472023Y327968D01*
X471954Y328007D01*
X471901Y328068D01*
X471847Y328145D01*
X471839Y328152D01*
X471831Y328183D01*
X471816Y328237D01*
X471808Y328298D01*
X471801Y328383D01*
Y328475D01*
X471808Y328575D01*
X471839Y328682D01*
X471847Y328690D01*
X471854Y328721D01*
X471877Y328767D01*
X471901Y328828D01*
X471931Y328897D01*
X471970Y328966D01*
X472070Y329120D01*
X472077Y329128D01*
X472092Y329151D01*
X472123Y329189D01*
X472162Y329235D01*
X472254Y329335D01*
X472308Y329389D01*
X472354Y329435D01*
X472361Y329443D01*
X472377Y329458D01*
X472407Y329481D01*
X472453Y329512D01*
X472507Y329542D01*
X472569Y329581D01*
X472646Y329627D01*
X472738Y329673D01*
X472745Y329681D01*
X472776Y329696D01*
X472822Y329719D01*
X472884Y329742D01*
X473006Y329804D01*
X473060Y329827D01*
X473114Y329850D01*
X473122D01*
X473137Y329857D01*
X473168Y329873D01*
X473214Y329888D01*
X473275Y329911D01*
X473352Y329934D01*
X473436Y329965D01*
X473544Y330003D01*
X473552D01*
X473575Y330011D01*
X473605Y330026D01*
X473629Y330034D01*
X473705Y330272D01*
Y330280D01*
X473721Y330311D01*
X473728Y330357D01*
X473744Y330418D01*
X473767Y330541D01*
X473774Y330610D01*
X473767Y330664D01*
Y330672D01*
X473759Y330687D01*
X473751Y330710D01*
X473736Y330733D01*
X473713Y330756D01*
X473675Y330779D01*
X473621Y330794D01*
X473559Y330802D01*
X473529D01*
X473498Y330794D01*
X473460Y330787D01*
X473414Y330771D01*
X473360Y330748D01*
X473314Y330718D01*
X473268Y330679D01*
X473260Y330672D01*
X473252Y330656D01*
X473229Y330633D01*
X473206Y330595D01*
X473175Y330549D01*
X473145Y330495D01*
X473106Y330433D01*
X473076Y330357D01*
Y330349D01*
X473068Y330334D01*
X473060Y330311D01*
X473045Y330272D01*
X472384D01*
Y330280D01*
X472392Y330295D01*
X472400Y330318D01*
X472415Y330349D01*
X472453Y330441D01*
X472507Y330549D01*
X472584Y330664D01*
X472676Y330794D01*
X472784Y330910D01*
X472907Y331025D01*
X472914D01*
X472922Y331040D01*
X472945Y331048D01*
X472968Y331071D01*
X473045Y331117D01*
X473145Y331171D01*
X473268Y331217D01*
X473406Y331263D01*
X473559Y331294D01*
X473728Y331309D01*
X473774D01*
X473805Y331301D01*
D02*
G37*
G36*
X488612Y332630D02*
X488658D01*
X488712Y332622D01*
X488835Y332607D01*
X488966Y332568D01*
X489104Y332522D01*
X489227Y332453D01*
X489280Y332407D01*
X489326Y332361D01*
X489334Y332346D01*
X489365Y332307D01*
X489396Y332246D01*
X489434Y332161D01*
X489465Y332054D01*
X489488Y331916D01*
X489495Y331762D01*
X489488Y331678D01*
X489472Y331585D01*
Y331578D01*
X489465Y331547D01*
X489457Y331493D01*
X489442Y331432D01*
X488720Y331263D01*
Y331271D01*
X488727Y331301D01*
X488735Y331340D01*
X488750Y331401D01*
Y331416D01*
X488758Y331455D01*
X488766Y331509D01*
X488773Y331585D01*
Y331662D01*
X488766Y331747D01*
X488750Y331823D01*
X488720Y331900D01*
X488712Y331908D01*
X488704Y331931D01*
X488674Y331962D01*
X488643Y332000D01*
X488589Y332031D01*
X488520Y332062D01*
X488436Y332085D01*
X488336Y332092D01*
X488297D01*
X488251Y332085D01*
X488198Y332077D01*
X488128Y332062D01*
X488059Y332038D01*
X487990Y332008D01*
X487921Y331962D01*
X487913Y331954D01*
X487890Y331939D01*
X487860Y331908D01*
X487829Y331870D01*
X487783Y331816D01*
X487744Y331754D01*
X487706Y331678D01*
X487668Y331593D01*
Y331585D01*
X487660Y331578D01*
X487652Y331532D01*
X487637Y331455D01*
X487629Y331363D01*
X487637Y331263D01*
X487660Y331148D01*
X487706Y331040D01*
X487737Y330986D01*
X487775Y330933D01*
X488382Y330272D01*
X488389Y330264D01*
X488405Y330249D01*
X488428Y330218D01*
X488451Y330180D01*
X488482Y330126D01*
X488520Y330065D01*
X488551Y329988D01*
X488589Y329911D01*
X488620Y329819D01*
X488643Y329719D01*
X488666Y329619D01*
X488674Y329504D01*
X488681Y329381D01*
X488666Y329258D01*
X488643Y329128D01*
X488604Y328990D01*
Y328982D01*
X488597Y328966D01*
X488589Y328943D01*
X488574Y328905D01*
X488551Y328859D01*
X488528Y328813D01*
X488466Y328698D01*
X488389Y328567D01*
X488290Y328437D01*
X488167Y328306D01*
X488021Y328191D01*
X488013D01*
X488005Y328175D01*
X487982Y328168D01*
X487952Y328145D01*
X487906Y328122D01*
X487860Y328099D01*
X487744Y328053D01*
X487606Y327999D01*
X487445Y327953D01*
X487268Y327922D01*
X487076Y327907D01*
X487015D01*
X486976Y327914D01*
X486923D01*
X486869Y327930D01*
X486738Y327953D01*
X486600Y327999D01*
X486462Y328060D01*
X486339Y328152D01*
X486293Y328206D01*
X486247Y328268D01*
Y328275D01*
X486239Y328283D01*
X486231Y328306D01*
X486216Y328337D01*
X486201Y328375D01*
X486193Y328421D01*
X486178Y328475D01*
X486162Y328529D01*
X486147Y328675D01*
Y328851D01*
X486170Y329051D01*
X486185Y329158D01*
X486216Y329274D01*
X486938Y329443D01*
Y329435D01*
X486930Y329397D01*
X486915Y329350D01*
X486900Y329289D01*
X486892Y329212D01*
X486876Y329128D01*
X486869Y328943D01*
X486876Y328851D01*
X486892Y328759D01*
X486915Y328675D01*
X486953Y328598D01*
X486999Y328536D01*
X487069Y328490D01*
X487153Y328452D01*
X487260Y328444D01*
X487307D01*
X487345Y328452D01*
X487430Y328467D01*
X487529Y328506D01*
X487644Y328567D01*
X487698Y328606D01*
X487752Y328652D01*
X487806Y328713D01*
X487852Y328782D01*
X487890Y328859D01*
X487929Y328943D01*
Y328951D01*
X487936Y328966D01*
X487944Y328997D01*
X487959Y329036D01*
X487975Y329120D01*
X487982Y329212D01*
Y329220D01*
Y329235D01*
Y329258D01*
X487975Y329289D01*
X487967Y329366D01*
X487936Y329443D01*
Y329450D01*
X487929Y329458D01*
X487906Y329504D01*
X487875Y329558D01*
X487844Y329612D01*
X487837Y329627D01*
X487814Y329658D01*
X487767Y329712D01*
X487714Y329773D01*
X487107Y330433D01*
X487099Y330441D01*
X487084Y330464D01*
X487053Y330510D01*
X487022Y330564D01*
X486984Y330625D01*
X486953Y330702D01*
X486923Y330794D01*
X486900Y330894D01*
Y330910D01*
X486892Y330940D01*
Y331002D01*
Y331079D01*
X486900Y331171D01*
X486915Y331271D01*
X486938Y331393D01*
X486976Y331516D01*
Y331524D01*
X486984Y331539D01*
X486999Y331562D01*
X487007Y331601D01*
X487030Y331647D01*
X487053Y331693D01*
X487115Y331808D01*
X487199Y331939D01*
X487307Y332077D01*
X487430Y332207D01*
X487575Y332330D01*
X487583D01*
X487598Y332346D01*
X487621Y332361D01*
X487652Y332376D01*
X487691Y332400D01*
X487737Y332430D01*
X487852Y332484D01*
X487990Y332538D01*
X488151Y332592D01*
X488328Y332622D01*
X488520Y332638D01*
X488574D01*
X488612Y332630D01*
D02*
G37*
G36*
X492514Y345602D02*
X492629D01*
X492764Y345583D01*
X493071Y345525D01*
X493417Y345448D01*
X493744Y345313D01*
X494071Y345140D01*
X494205Y345044D01*
X494321Y344910D01*
X494340Y344871D01*
X494417Y344775D01*
X494513Y344621D01*
X494609Y344391D01*
X494686Y344103D01*
X494744Y343776D01*
X494763Y343372D01*
X494744Y343142D01*
X494705Y342911D01*
Y342892D01*
X494686Y342815D01*
X494667Y342757D01*
X494648Y342661D01*
X494628Y342565D01*
X494590Y342430D01*
X492553Y341988D01*
Y342007D01*
X492572Y342027D01*
X492591Y342123D01*
X492610Y342257D01*
X492649Y342411D01*
Y342450D01*
X492668Y342546D01*
X492687Y342680D01*
X492706Y342853D01*
Y343045D01*
X492687Y343238D01*
X492649Y343430D01*
X492591Y343603D01*
Y343622D01*
X492553Y343660D01*
X492495Y343737D01*
X492418Y343814D01*
X492303Y343891D01*
X492149Y343968D01*
X491976Y344006D01*
X491745Y344026D01*
X491649D01*
X491553Y344006D01*
X491438Y343987D01*
X491284Y343949D01*
X491130Y343910D01*
X490976Y343833D01*
X490823Y343737D01*
X490803Y343718D01*
X490765Y343680D01*
X490688Y343622D01*
X490611Y343526D01*
X490534Y343411D01*
X490438Y343276D01*
X490342Y343122D01*
X490265Y342930D01*
Y342911D01*
X490246Y342892D01*
X490227Y342776D01*
X490188Y342603D01*
X490150Y342392D01*
Y342161D01*
X490169Y341911D01*
X490208Y341681D01*
X490323Y341450D01*
X491995Y339605D01*
X492014Y339586D01*
X492053Y339547D01*
X492110Y339490D01*
X492187Y339394D01*
X492264Y339278D01*
X492341Y339124D01*
X492437Y338971D01*
X492533Y338779D01*
X492610Y338567D01*
X492668Y338336D01*
X492726Y338087D01*
X492764Y337798D01*
Y337510D01*
X492745Y337203D01*
X492668Y336876D01*
X492572Y336530D01*
Y336511D01*
X492553Y336472D01*
X492533Y336415D01*
X492495Y336318D01*
X492437Y336203D01*
X492380Y336088D01*
X492226Y335780D01*
X492014Y335454D01*
X491745Y335127D01*
X491438Y334781D01*
X491053Y334492D01*
X491034D01*
X491015Y334454D01*
X490938Y334435D01*
X490861Y334377D01*
X490765Y334319D01*
X490650Y334262D01*
X490361Y334127D01*
X489996Y333993D01*
X489593Y333877D01*
X489131Y333801D01*
X488632Y333762D01*
X488478D01*
X488382Y333781D01*
X488247D01*
X488094Y333820D01*
X487767Y333877D01*
X487401Y333993D01*
X487056Y334147D01*
X486748Y334377D01*
X486614Y334531D01*
X486498Y334685D01*
Y334704D01*
X486479Y334723D01*
X486460Y334781D01*
X486421Y334858D01*
X486402Y334954D01*
X486364Y335069D01*
X486325Y335204D01*
X486306Y335377D01*
X486287Y335550D01*
X486268Y335742D01*
Y335953D01*
Y336203D01*
X486287Y336453D01*
X486344Y336722D01*
X486402Y337010D01*
X486479Y337318D01*
X488516Y337779D01*
Y337760D01*
X488497Y337683D01*
X488459Y337548D01*
X488420Y337395D01*
X488401Y337203D01*
X488363Y337010D01*
X488343Y336549D01*
Y336318D01*
X488363Y336107D01*
X488420Y335896D01*
X488497Y335703D01*
X488612Y335550D01*
X488766Y335434D01*
X488958Y335338D01*
X489189Y335319D01*
X489285D01*
X489362Y335338D01*
X489554Y335377D01*
X489785Y335454D01*
X490015Y335588D01*
X490150Y335684D01*
X490265Y335800D01*
X490381Y335915D01*
X490477Y336069D01*
X490573Y336242D01*
X490650Y336434D01*
Y336453D01*
X490669Y336491D01*
X490688Y336549D01*
X490707Y336626D01*
X490746Y336837D01*
X490765Y337049D01*
Y337068D01*
Y337106D01*
Y337145D01*
X490746Y337222D01*
X490727Y337395D01*
X490650Y337587D01*
Y337606D01*
X490630Y337625D01*
X490592Y337741D01*
X490515Y337856D01*
X490438Y337991D01*
X490419Y338010D01*
X490361Y338087D01*
X490265Y338202D01*
X490131Y338356D01*
X488766Y339951D01*
X488747Y339970D01*
X488689Y340047D01*
X488593Y340143D01*
X488478Y340297D01*
X488363Y340470D01*
X488266Y340662D01*
X488170Y340893D01*
X488113Y341143D01*
Y341181D01*
X488094Y341277D01*
Y341412D01*
Y341604D01*
X488113Y341854D01*
X488151Y342123D01*
X488209Y342430D01*
X488305Y342757D01*
Y342776D01*
X488324Y342815D01*
X488363Y342892D01*
X488401Y342969D01*
X488439Y343084D01*
X488497Y343218D01*
X488670Y343507D01*
X488862Y343833D01*
X489131Y344179D01*
X489458Y344525D01*
X489823Y344833D01*
X489843D01*
X489881Y344871D01*
X489939Y344910D01*
X490015Y344948D01*
X490111Y345025D01*
X490246Y345083D01*
X490534Y345236D01*
X490900Y345371D01*
X491322Y345506D01*
X491784Y345583D01*
X492283Y345621D01*
X492418D01*
X492514Y345602D01*
D02*
G37*
G36*
X469758D02*
X469950Y345583D01*
X470161Y345563D01*
X470373Y345525D01*
X470603Y345448D01*
X470815Y345371D01*
X470834Y345352D01*
X470911Y345333D01*
X470988Y345275D01*
X471103Y345179D01*
X471238Y345083D01*
X471353Y344967D01*
X471468Y344814D01*
X471564Y344641D01*
X471584Y344621D01*
X471603Y344564D01*
X471622Y344448D01*
X471660Y344314D01*
X471699Y344160D01*
X471737Y343968D01*
X471757Y343757D01*
Y343526D01*
Y343507D01*
Y343411D01*
X471737Y343276D01*
X471718Y343103D01*
X471680Y342892D01*
X471641Y342642D01*
X471564Y342373D01*
X471487Y342084D01*
X471468Y342065D01*
X471449Y341969D01*
X471391Y341815D01*
X471314Y341585D01*
X469431D01*
X469585Y342065D01*
Y342084D01*
X469604Y342123D01*
X469623Y342200D01*
X469662Y342296D01*
X469719Y342507D01*
X469777Y342719D01*
Y342738D01*
X469796Y342776D01*
Y342815D01*
X469815Y342892D01*
X469835Y343065D01*
Y343257D01*
Y343276D01*
Y343295D01*
X469815Y343411D01*
X469796Y343545D01*
X469738Y343680D01*
X469719Y343699D01*
X469681Y343776D01*
X469585Y343853D01*
X469450Y343930D01*
X469412Y343949D01*
X469315Y343987D01*
X469142Y344006D01*
X468912Y344026D01*
X468739D01*
X468643Y344006D01*
X468374Y343949D01*
X468085Y343853D01*
X468066D01*
X468028Y343833D01*
X467951Y343795D01*
X467874Y343737D01*
X467663Y343584D01*
X467451Y343372D01*
X467432Y343353D01*
X467413Y343315D01*
X467355Y343257D01*
X467297Y343161D01*
X467144Y342949D01*
X466971Y342661D01*
Y342642D01*
X466932Y342584D01*
X466894Y342507D01*
X466836Y342392D01*
X466779Y342257D01*
X466721Y342104D01*
X466644Y341911D01*
X466567Y341719D01*
X465337Y338048D01*
Y338029D01*
X465318Y337971D01*
X465279Y337895D01*
X465260Y337798D01*
X465183Y337568D01*
X465106Y337318D01*
Y337299D01*
X465087Y337260D01*
Y337203D01*
X465068Y337126D01*
X465010Y336933D01*
X464972Y336684D01*
Y336664D01*
Y336626D01*
X464953Y336568D01*
Y336491D01*
X464933Y336299D01*
Y336107D01*
Y336088D01*
Y336069D01*
X464972Y335972D01*
X465010Y335838D01*
X465068Y335684D01*
X465087Y335665D01*
X465145Y335588D01*
X465222Y335492D01*
X465356Y335415D01*
X465375D01*
X465395Y335396D01*
X465510Y335377D01*
X465664Y335338D01*
X465894Y335319D01*
X466029D01*
X466125Y335338D01*
X466336Y335377D01*
X466567Y335454D01*
X466586D01*
X466625Y335473D01*
X466682Y335511D01*
X466759Y335569D01*
X466932Y335684D01*
X467124Y335838D01*
X467144Y335857D01*
X467163Y335876D01*
X467220Y335934D01*
X467278Y335992D01*
X467432Y336184D01*
X467586Y336434D01*
X467605Y336453D01*
X467624Y336491D01*
X467663Y336568D01*
X467720Y336664D01*
X467855Y336914D01*
X467989Y337183D01*
Y337203D01*
X468028Y337260D01*
X468047Y337337D01*
X468105Y337433D01*
X468143Y337568D01*
X468201Y337702D01*
X468316Y338048D01*
X468412Y338336D01*
X466779D01*
X467278Y339778D01*
X470795D01*
X468777Y333858D01*
X467336D01*
X467430Y335048D01*
X465356Y333762D01*
X465222D01*
X465068Y333781D01*
X464895D01*
X464664Y333820D01*
X464453Y333858D01*
X464222Y333897D01*
X464011Y333974D01*
X463992Y333993D01*
X463934Y334012D01*
X463838Y334070D01*
X463723Y334147D01*
X463473Y334339D01*
X463338Y334473D01*
X463242Y334608D01*
Y334627D01*
X463203Y334685D01*
X463165Y334762D01*
X463127Y334877D01*
X463088Y335031D01*
X463031Y335204D01*
X463011Y335396D01*
X462992Y335607D01*
Y335627D01*
Y335723D01*
Y335838D01*
Y335992D01*
X463011Y336184D01*
X463031Y336395D01*
X463107Y336876D01*
Y336914D01*
X463146Y336991D01*
X463165Y337145D01*
X463223Y337318D01*
X463280Y337548D01*
X463357Y337818D01*
X463453Y338106D01*
X463550Y338433D01*
X464549Y341316D01*
Y341335D01*
X464568Y341373D01*
X464587Y341431D01*
X464626Y341508D01*
X464703Y341719D01*
X464837Y341988D01*
X464991Y342315D01*
X465202Y342680D01*
X465433Y343065D01*
X465721Y343468D01*
X466029Y343872D01*
X466394Y344256D01*
X466798Y344621D01*
X467240Y344948D01*
X467739Y345217D01*
X468258Y345429D01*
X468547Y345506D01*
X468835Y345583D01*
X469142Y345602D01*
X469469Y345621D01*
X469604D01*
X469758Y345602D01*
D02*
G37*
G36*
X476389Y333858D02*
X474486D01*
X476292Y339144D01*
X473698D01*
X471910Y333858D01*
X470007D01*
X473967Y345506D01*
X475870D01*
X474197Y340624D01*
X476792D01*
X478445Y345506D01*
X480348D01*
X476389Y333858D01*
D02*
G37*
G36*
X480794Y331393D02*
X480464D01*
X480710Y332592D01*
X481370D01*
X480794Y331393D01*
D02*
G37*
G36*
X485268Y345602D02*
X485403Y345583D01*
X485556Y345563D01*
X485902Y345506D01*
X486287Y345371D01*
X486633Y345198D01*
X486787Y345083D01*
X486940Y344948D01*
X487056Y344794D01*
X487152Y344621D01*
Y344602D01*
X487171Y344583D01*
X487190Y344525D01*
X487209Y344429D01*
X487228Y344333D01*
X487267Y344218D01*
X487286Y344064D01*
Y343891D01*
X487305Y343699D01*
Y343488D01*
X487286Y343257D01*
X487267Y343007D01*
X487209Y342719D01*
X487152Y342430D01*
X487075Y342123D01*
X486960Y341777D01*
X485556Y337645D01*
Y337625D01*
X485537Y337606D01*
X485499Y337491D01*
X485441Y337318D01*
X485345Y337106D01*
X485249Y336857D01*
X485114Y336588D01*
X484980Y336318D01*
X484826Y336049D01*
X484807Y336011D01*
X484749Y335934D01*
X484672Y335800D01*
X484557Y335646D01*
X484403Y335454D01*
X484249Y335242D01*
X484057Y335031D01*
X483846Y334819D01*
X483827Y334800D01*
X483750Y334723D01*
X483634Y334627D01*
X483481Y334512D01*
X483288Y334377D01*
X483077Y334262D01*
X482827Y334127D01*
X482558Y334012D01*
X482520Y333993D01*
X482423Y333974D01*
X482289Y333935D01*
X482078Y333897D01*
X481847Y333839D01*
X481578Y333801D01*
X481270Y333781D01*
X480944Y333762D01*
X480790D01*
X480636Y333781D01*
X480425Y333801D01*
X480213Y333820D01*
X479963Y333877D01*
X479733Y333935D01*
X479502Y334012D01*
X479483Y334031D01*
X479406Y334070D01*
X479310Y334127D01*
X479195Y334204D01*
X479079Y334319D01*
X478945Y334454D01*
X478829Y334627D01*
X478733Y334800D01*
Y334819D01*
X478714Y334896D01*
X478676Y335012D01*
X478637Y335165D01*
X478618Y335338D01*
X478599Y335550D01*
X478580Y335780D01*
X478599Y336030D01*
Y336069D01*
X478618Y336145D01*
X478637Y336299D01*
X478676Y336491D01*
X478733Y336722D01*
X478810Y337010D01*
X478887Y337318D01*
X479002Y337645D01*
X480406Y341777D01*
Y341796D01*
X480425Y341815D01*
X480463Y341931D01*
X480521Y342104D01*
X480617Y342315D01*
X480713Y342565D01*
X480828Y342834D01*
X480963Y343103D01*
X481117Y343372D01*
X481136Y343411D01*
X481193Y343488D01*
X481270Y343622D01*
X481386Y343776D01*
X481520Y343968D01*
X481693Y344179D01*
X481885Y344391D01*
X482078Y344583D01*
X482097Y344602D01*
X482174Y344660D01*
X482289Y344756D01*
X482443Y344871D01*
X482635Y345006D01*
X482866Y345121D01*
X483096Y345256D01*
X483365Y345352D01*
X483404Y345371D01*
X483500Y345390D01*
X483634Y345429D01*
X483846Y345486D01*
X484076Y345544D01*
X484365Y345583D01*
X484653Y345602D01*
X484980Y345621D01*
X485153D01*
X485268Y345602D01*
D02*
G37*
G36*
X501278Y343795D02*
X499241D01*
X495858Y333858D01*
X493956D01*
X497338Y343795D01*
X495301D01*
X495897Y345506D01*
X501855D01*
X501278Y343795D01*
D02*
G37*
%LPC*%
G36*
X476270Y330771D02*
X476224D01*
X476171Y330764D01*
X476101Y330756D01*
X476017Y330741D01*
X475925Y330710D01*
X475825Y330679D01*
X475725Y330633D01*
X475019Y328552D01*
X475026Y328544D01*
X475057Y328536D01*
X475103Y328521D01*
X475157Y328498D01*
X475226Y328475D01*
X475310Y328460D01*
X475395Y328452D01*
X475479Y328444D01*
X475495D01*
X475549Y328452D01*
X475610Y328475D01*
X475679Y328521D01*
X475687Y328529D01*
X475694Y328536D01*
X475740Y328583D01*
X475802Y328652D01*
X475863Y328744D01*
X475871Y328751D01*
X475879Y328767D01*
X475894Y328798D01*
X475910Y328836D01*
X475956Y328928D01*
X476002Y329028D01*
Y329036D01*
X476009Y329051D01*
X476025Y329082D01*
X476040Y329128D01*
X476063Y329174D01*
X476086Y329235D01*
X476132Y329366D01*
Y329374D01*
X476140Y329389D01*
X476148Y329420D01*
X476163Y329466D01*
X476186Y329520D01*
X476201Y329581D01*
X476224Y329650D01*
X476255Y329734D01*
Y329742D01*
X476270Y329773D01*
X476278Y329811D01*
X476301Y329865D01*
X476340Y329980D01*
X476355Y330034D01*
X476370Y330080D01*
Y330088D01*
X476378Y330103D01*
X476393Y330149D01*
X476416Y330211D01*
X476432Y330280D01*
Y330288D01*
X476439Y330295D01*
X476447Y330341D01*
X476462Y330395D01*
X476470Y330464D01*
Y330472D01*
Y330480D01*
X476478Y330526D01*
Y330572D01*
X476470Y330625D01*
Y330633D01*
X476455Y330664D01*
X476432Y330695D01*
X476401Y330725D01*
X476393Y330733D01*
X476370Y330748D01*
X476324Y330764D01*
X476270Y330771D01*
D02*
G37*
G36*
X478759D02*
X478743D01*
X478697Y330764D01*
X478636Y330748D01*
X478567Y330710D01*
X478551Y330702D01*
X478513Y330672D01*
X478467Y330625D01*
X478413Y330556D01*
Y330549D01*
X478406Y330541D01*
X478375Y330495D01*
X478336Y330433D01*
X478298Y330357D01*
Y330349D01*
X478290Y330341D01*
X478283Y330318D01*
X478267Y330288D01*
X478236Y330211D01*
X478206Y330118D01*
X478144Y329942D01*
X478797D01*
X478866Y330142D01*
Y330149D01*
X478874Y330165D01*
X478882Y330188D01*
X478889Y330218D01*
X478912Y330288D01*
X478928Y330364D01*
Y330372D01*
X478935Y330380D01*
X478943Y330426D01*
X478951Y330487D01*
Y330564D01*
Y330572D01*
Y330579D01*
X478943Y330618D01*
X478928Y330672D01*
X478897Y330718D01*
X478889Y330725D01*
X478866Y330748D01*
X478820Y330764D01*
X478759Y330771D01*
D02*
G37*
G36*
X473483Y329604D02*
X473475Y329596D01*
X473444Y329589D01*
X473390Y329558D01*
X473314Y329520D01*
X473306D01*
X473298Y329512D01*
X473244Y329481D01*
X473191Y329450D01*
X473129Y329420D01*
X473114Y329412D01*
X473083Y329389D01*
X473030Y329358D01*
X472953Y329312D01*
X472945D01*
X472937Y329304D01*
X472891Y329274D01*
X472837Y329235D01*
X472784Y329189D01*
X472776Y329182D01*
X472745Y329151D01*
X472707Y329097D01*
X472661Y329036D01*
X472653Y329020D01*
X472622Y328982D01*
X472592Y328928D01*
X472561Y328859D01*
Y328851D01*
X472553Y328844D01*
X472546Y328798D01*
X472538Y328728D01*
X472530Y328652D01*
X472546Y328575D01*
X472584Y328506D01*
X472615Y328483D01*
X472653Y328460D01*
X472699Y328452D01*
X472753Y328444D01*
X472768D01*
X472799Y328452D01*
X472853Y328460D01*
X472907Y328483D01*
X472922Y328490D01*
X472953Y328513D01*
X472991Y328536D01*
X473030Y328567D01*
X473037Y328575D01*
X473068Y328598D01*
X473106Y328629D01*
X473152Y328675D01*
X473160Y328682D01*
X473168Y328690D01*
X473483Y329604D01*
D02*
G37*
G36*
X484442Y344026D02*
X484307D01*
X484173Y344006D01*
X484000Y343968D01*
X483788Y343910D01*
X483596Y343833D01*
X483385Y343737D01*
X483212Y343584D01*
X483192Y343564D01*
X483135Y343507D01*
X483058Y343391D01*
X482942Y343238D01*
X482827Y343045D01*
X482693Y342815D01*
X482577Y342527D01*
X482443Y342200D01*
X480751Y337241D01*
Y337222D01*
X480732Y337203D01*
X480694Y337087D01*
X480655Y336914D01*
X480598Y336703D01*
X480559Y336453D01*
X480540Y336222D01*
X480521Y335992D01*
X480559Y335800D01*
Y335780D01*
X480598Y335723D01*
X480636Y335646D01*
X480732Y335569D01*
X480848Y335473D01*
X481001Y335396D01*
X481213Y335338D01*
X481463Y335319D01*
X481597D01*
X481732Y335338D01*
X481924Y335377D01*
X482116Y335434D01*
X482328Y335511D01*
X482520Y335627D01*
X482712Y335780D01*
X482731Y335800D01*
X482789Y335876D01*
X482885Y335992D01*
X482981Y336145D01*
X483115Y336357D01*
X483250Y336607D01*
X483385Y336895D01*
X483519Y337241D01*
X485191Y342200D01*
Y342219D01*
X485211Y342238D01*
X485249Y342354D01*
X485287Y342527D01*
X485345Y342719D01*
X485383Y342949D01*
X485403Y343180D01*
Y343391D01*
X485364Y343584D01*
Y343603D01*
X485326Y343660D01*
X485287Y343718D01*
X485191Y343814D01*
X485076Y343891D01*
X484922Y343949D01*
X484711Y344006D01*
X484442Y344026D01*
D02*
G37*
%LPD*%
D10*
X682409Y425035D02*
G03*
X682409Y425035I-500J0D01*
G01*
X693059Y334358D02*
G03*
X693059Y334358I-500J0D01*
G01*
Y414555D02*
G03*
X693059Y414555I-500J0D01*
G01*
Y374673D02*
G03*
X693059Y374673I-500J0D01*
G01*
X442087Y447638D02*
G03*
X442087Y447638I-394J0D01*
G01*
X478051Y456595D02*
Y477756D01*
Y456595D02*
X521555D01*
X478051Y477756D02*
X521555D01*
Y456595D02*
Y477756D01*
D45*
X674803Y285433D02*
Y310236D01*
X700787Y428740D02*
X712598D01*
D55*
X546457Y421260D02*
G03*
X546457Y421260I-492J0D01*
G01*
X587894Y434842D02*
G03*
X587894Y434842I-492J0D01*
G01*
X485925Y411811D02*
G03*
X485925Y411811I-492J0D01*
G01*
X496850Y391142D02*
G03*
X496850Y391142I-492J0D01*
G01*
X672638Y312598D02*
G03*
X672638Y312598I-492J0D01*
G01*
X579921Y384055D02*
G03*
X579921Y384055I-492J0D01*
G01*
X715453Y431102D02*
G03*
X715453Y431102I-492J0D01*
G01*
D56*
X505905Y385827D02*
G03*
X505905Y385827I-1181J0D01*
G01*
D57*
X453150Y431496D02*
X460236D01*
X453150D02*
Y435433D01*
X460236D01*
Y431496D02*
Y435433D01*
X510039Y401575D02*
X513976D01*
Y409449D01*
X510039D02*
X513976D01*
X510039Y401575D02*
Y409449D01*
X537008Y378346D02*
Y382283D01*
Y378346D02*
X544882D01*
Y382283D01*
X537008D02*
X544882D01*
X476378Y358268D02*
Y362205D01*
Y358268D02*
X484252D01*
Y362205D01*
X476378D02*
X484252D01*
X553543Y437795D02*
X557480D01*
Y445669D01*
X553543D02*
X557480D01*
X553543Y437795D02*
Y445669D01*
X507480Y419685D02*
Y423622D01*
Y419685D02*
X515354D01*
Y423622D01*
X507480D02*
X515354D01*
X430315Y434646D02*
X437402D01*
Y430709D02*
Y434646D01*
X430315Y430709D02*
X437402D01*
X430315D02*
Y434646D01*
X604331Y437008D02*
Y444095D01*
X608268D01*
Y437008D02*
Y444095D01*
X604331Y437008D02*
X608268D01*
X544882Y383858D02*
Y387795D01*
X537008D02*
X544882D01*
X537008Y383858D02*
Y387795D01*
Y383858D02*
X544882D01*
X593307Y310630D02*
Y317717D01*
X597244D01*
Y310630D02*
Y317717D01*
X593307Y310630D02*
X597244D01*
X585433D02*
Y317717D01*
X589370D01*
Y310630D02*
Y317717D01*
X585433Y310630D02*
X589370D01*
X577559D02*
Y317717D01*
X581496D01*
Y310630D02*
Y317717D01*
X577559Y310630D02*
X581496D01*
X601181D02*
Y317717D01*
X605118D01*
Y310630D02*
Y317717D01*
X601181Y310630D02*
X605118D01*
X430315Y428740D02*
X437402D01*
Y424803D02*
Y428740D01*
X430315Y424803D02*
X437402D01*
X430315D02*
Y428740D01*
X596752Y419685D02*
X603839D01*
X596752D02*
Y423622D01*
X603839D01*
Y419685D02*
Y423622D01*
X562205Y350000D02*
X569291D01*
X562205D02*
Y353937D01*
X569291D01*
Y350000D02*
Y353937D01*
X562205Y345472D02*
X569291D01*
X562205D02*
Y349410D01*
X569291D01*
Y345472D02*
Y349410D01*
X430315Y440551D02*
X437402D01*
Y436614D02*
Y440551D01*
X430315Y436614D02*
X437402D01*
X430315D02*
Y440551D01*
Y414173D02*
X437402D01*
Y410236D02*
Y414173D01*
X430315Y410236D02*
X437402D01*
X430315D02*
Y414173D01*
X430315Y446063D02*
X437402D01*
Y442126D02*
Y446063D01*
X430315Y442126D02*
X437402D01*
X430315D02*
Y446063D01*
X648819Y466535D02*
X655905D01*
Y462598D02*
Y466535D01*
X648819Y462598D02*
X655905D01*
X648819D02*
Y466535D01*
X430315Y398031D02*
X437402D01*
Y394094D02*
Y398031D01*
X430315Y394094D02*
X437402D01*
X430315D02*
Y398031D01*
X596850Y418110D02*
X603937D01*
Y414173D02*
Y418110D01*
X596850Y414173D02*
X603937D01*
X596850D02*
Y418110D01*
X485335Y302756D02*
X492421D01*
Y298819D02*
Y302756D01*
X485335Y298819D02*
X492421D01*
X485335D02*
Y302756D01*
X492520Y285827D02*
Y292913D01*
X488583Y285827D02*
X492520D01*
X488583D02*
Y292913D01*
X492520D01*
X583071Y402362D02*
X587008D01*
X583071Y394488D02*
Y402362D01*
Y394488D02*
X587008D01*
Y402362D01*
X597638Y394488D02*
Y401575D01*
X601575D01*
Y394488D02*
Y401575D01*
X597638Y394488D02*
X601575D01*
X688583Y435433D02*
X692520D01*
X688583Y428346D02*
Y435433D01*
Y428346D02*
X692520D01*
Y435433D01*
D58*
X643945Y353055D02*
X658118D01*
Y360929D01*
X643945D02*
X658118D01*
X643945Y353055D02*
Y360929D01*
X620803Y394181D02*
Y408354D01*
X612929D02*
X620803D01*
X612929Y394181D02*
Y408354D01*
Y394181D02*
X620803D01*
X470953Y375260D02*
X485126D01*
Y383134D01*
X470953D02*
X485126D01*
X470953Y375260D02*
Y383134D01*
X590488Y329614D02*
Y343787D01*
X582614D02*
X590488D01*
X582614Y329614D02*
Y343787D01*
Y329614D02*
X590488D01*
X622898Y394008D02*
Y408181D01*
Y394008D02*
X630772D01*
Y408181D01*
X622898D02*
X630772D01*
X610961Y394181D02*
Y408354D01*
X603087D02*
X610961D01*
X603087Y394181D02*
Y408354D01*
Y394181D02*
X610961D01*
X525984Y451575D02*
X541732D01*
X541732Y453150D02*
Y475197D01*
X525984Y453150D02*
Y475197D01*
X539665D02*
X541732D01*
X539665Y453150D02*
X541732D01*
X525984Y475197D02*
X528051D01*
X525984Y453150D02*
X528051D01*
X545276Y451575D02*
X561024D01*
X561024Y453150D02*
Y475197D01*
X545276Y453150D02*
Y475197D01*
X558957D02*
X561024D01*
X558957Y453150D02*
X561024D01*
X545276Y475197D02*
X547342D01*
X545276Y453150D02*
X547342D01*
X541142Y421063D02*
Y447441D01*
X526575Y421063D02*
Y447441D01*
Y421063D02*
X541142D01*
X526575Y447441D02*
X541142D01*
X580402Y422110D02*
X594575D01*
Y429984D01*
X580402D02*
X594575D01*
X580402Y422110D02*
Y429984D01*
X565122Y435382D02*
Y454382D01*
X582122Y435382D02*
Y454382D01*
X585827Y456193D02*
Y471941D01*
X587402Y456193D02*
X609449D01*
X587402Y471941D02*
X609449D01*
Y456193D02*
Y458260D01*
X587402Y456193D02*
Y458260D01*
X609449Y469874D02*
Y471941D01*
X587402Y469874D02*
Y471941D01*
X569748Y460150D02*
Y474323D01*
Y460150D02*
X577622D01*
Y474323D01*
X569748D02*
X577622D01*
X609362Y454268D02*
X623535D01*
X609362Y446394D02*
Y454268D01*
Y446394D02*
X623535D01*
Y454268D01*
X562653Y284413D02*
Y304913D01*
Y284413D02*
X620154D01*
Y304913D01*
X562653D02*
X620154D01*
X588386Y442224D02*
X600591D01*
X588386Y438287D02*
X600591D01*
Y442224D01*
X588386Y438287D02*
Y442224D01*
X458598Y410716D02*
Y424890D01*
X450724D02*
X458598D01*
X450724Y410716D02*
Y424890D01*
Y410716D02*
X458598D01*
X482874Y411221D02*
Y413681D01*
X480413Y411221D02*
X482874D01*
X465945D02*
X468405D01*
X465945D02*
Y413681D01*
Y425689D02*
Y428150D01*
X468405D01*
X482874Y425689D02*
Y428150D01*
X480413D02*
X482874D01*
X466598Y433772D02*
Y447945D01*
Y433772D02*
X474472D01*
Y447945D01*
X466598D02*
X474472D01*
X427165Y409646D02*
Y415551D01*
X414173Y409646D02*
Y415551D01*
X425984D01*
Y409646D02*
Y415551D01*
X414173Y409646D02*
X425984D01*
X640945Y461811D02*
Y467717D01*
X627953Y461811D02*
Y467717D01*
X639764D01*
Y461811D02*
Y467717D01*
X627953Y461811D02*
X639764D01*
X427165Y393307D02*
Y399213D01*
X414173Y393307D02*
Y399213D01*
X425984D01*
Y393307D02*
Y399213D01*
X414173Y393307D02*
X425984D01*
X470953Y365024D02*
X485126D01*
Y372898D01*
X470953D02*
X485126D01*
X470953Y365024D02*
Y372898D01*
X500787Y365354D02*
X525197D01*
X500787Y389764D02*
X525197D01*
Y365354D02*
Y389764D01*
X500787Y365354D02*
Y389764D01*
X596000Y394181D02*
Y408354D01*
X588126D02*
X596000D01*
X588126Y394181D02*
Y408354D01*
Y394181D02*
X596000D01*
X642913Y310039D02*
X671260D01*
X642913Y285236D02*
X671260D01*
X642913Y305413D02*
Y310039D01*
X671260Y305413D02*
Y310039D01*
X642913Y285236D02*
Y289862D01*
X671260Y285236D02*
Y289862D01*
X583858Y358268D02*
Y382677D01*
X608268Y358268D02*
Y382677D01*
X583858D02*
X608268D01*
X583858Y358268D02*
X608268D01*
X712598Y431102D02*
Y449213D01*
X700787Y431102D02*
Y449213D01*
X643945Y339512D02*
X658118D01*
Y347386D01*
X643945D02*
X658118D01*
X643945Y339512D02*
Y347386D01*
X653480Y398512D02*
Y412685D01*
X645606D02*
X653480D01*
X645606Y398512D02*
Y412685D01*
Y398512D02*
X653480D01*
X498874Y284413D02*
Y304913D01*
Y284413D02*
X556374D01*
Y304913D01*
X498874D02*
X556374D01*
X441693Y454724D02*
Y470866D01*
X470354Y454724D02*
Y470866D01*
X455118Y292581D02*
X457118Y288583D01*
X459117Y292581D01*
X461116Y293581D02*
X462116Y294581D01*
X464115D01*
X465115Y293581D01*
Y289582D01*
X464115Y288583D01*
X462116D01*
X461116Y289582D01*
Y293581D01*
X467114Y288583D02*
Y289582D01*
X468114D01*
Y288583D01*
X467114D01*
X472113D02*
X474112D01*
X473112D01*
Y294581D01*
X472113Y293581D01*
D59*
X517073Y327773D02*
X520472D01*
X516819Y327824D02*
X520777D01*
X516616Y327875D02*
X521031D01*
X516413Y327926D02*
X521183D01*
X516210Y327976D02*
X521386D01*
X516008Y328027D02*
X521589D01*
X515855Y328078D02*
X521741D01*
X515703Y328129D02*
X521893D01*
X515551Y328179D02*
X522096D01*
X515399Y328230D02*
X522248D01*
X515246Y328281D02*
X522350D01*
X515145Y328332D02*
X522502D01*
X514993Y328382D02*
X522654D01*
X514891Y328433D02*
X522756D01*
X514739Y328484D02*
X522857D01*
X514638Y328535D02*
X523009D01*
X514536Y328585D02*
X523111D01*
X514435Y328636D02*
X523212D01*
X514333Y328687D02*
X523314D01*
X514232Y328738D02*
X523415D01*
X514130Y328788D02*
X523517D01*
X514029Y328839D02*
X523618D01*
X513927Y328890D02*
X523669D01*
X513876Y328941D02*
X523770D01*
X513775Y328991D02*
X523872D01*
X513673Y329042D02*
X523973D01*
X513623Y329093D02*
X524024D01*
X513521Y329144D02*
X524126D01*
X513420Y329194D02*
X524176D01*
X513369Y329245D02*
X524278D01*
X513268Y329296D02*
X524379D01*
X513217Y329346D02*
X524430D01*
X513115Y329397D02*
X524532D01*
X513065Y329448D02*
X524582D01*
X513014Y329499D02*
X524633D01*
X512913Y329549D02*
X524734D01*
X512862Y329600D02*
X524785D01*
X512811Y329651D02*
X524836D01*
X512710Y329702D02*
X524937D01*
X512659Y329752D02*
X524988D01*
X512608Y329803D02*
X525039D01*
X512557Y329854D02*
X525090D01*
X512456Y329905D02*
X525140D01*
X512405Y329955D02*
X525242D01*
X512354Y330006D02*
X525293D01*
X512304Y330057D02*
X525343D01*
X512253Y330107D02*
X525394D01*
X512202Y330158D02*
X525445D01*
X512151Y330209D02*
X525495D01*
X512101Y330260D02*
X525546D01*
X512050Y330310D02*
X525597D01*
X511948Y330361D02*
X525648D01*
X511898Y330412D02*
X525699D01*
X511847Y330463D02*
X525749D01*
X511796Y330513D02*
X525800D01*
X511796Y330564D02*
X525851D01*
X511746Y330615D02*
X525901D01*
X511695Y330666D02*
X525952D01*
X511644Y330716D02*
X526003D01*
X511593Y330767D02*
X526054D01*
X511543Y330818D02*
X526104D01*
X519306Y330869D02*
X526155D01*
X511492D02*
X518544D01*
X519914Y330919D02*
X526206D01*
X511441D02*
X517936D01*
X520168Y330970D02*
X526257D01*
X511390D02*
X517580D01*
X520422Y331021D02*
X526307D01*
X511340D02*
X517327D01*
X520625Y331071D02*
X526307D01*
X511289D02*
X517073D01*
X520777Y331122D02*
X526358D01*
X511289D02*
X516921D01*
X520929Y331173D02*
X526409D01*
X511238D02*
X516718D01*
X521081Y331224D02*
X526460D01*
X511187D02*
X516616D01*
X521234Y331275D02*
X526510D01*
X511137D02*
X516464D01*
X521335Y331325D02*
X526510D01*
X511086D02*
X516312D01*
X521437Y331376D02*
X526561D01*
X511086D02*
X516210D01*
X521538Y331427D02*
X526612D01*
X511035D02*
X516109D01*
X521690Y331477D02*
X526662D01*
X510984D02*
X516008D01*
X521792Y331528D02*
X526662D01*
X510934D02*
X515906D01*
X521842Y331579D02*
X526713D01*
X510934D02*
X515804D01*
X521944Y331630D02*
X526764D01*
X510883D02*
X515703D01*
X522045Y331680D02*
X526815D01*
X510832D02*
X515602D01*
X522147Y331731D02*
X526815D01*
X510781D02*
X515500D01*
X522197Y331782D02*
X526865D01*
X510781D02*
X515449D01*
X522299Y331833D02*
X526916D01*
X510731D02*
X515348D01*
X522350Y331883D02*
X526916D01*
X510680D02*
X515297D01*
X522451Y331934D02*
X526967D01*
X510680D02*
X515246D01*
X522502Y331985D02*
X527018D01*
X510629D02*
X515297D01*
X522603Y332035D02*
X527018D01*
X510578D02*
X515348D01*
X522654Y332086D02*
X527068D01*
X510578D02*
X515399D01*
X522705Y332137D02*
X527119D01*
X510528D02*
X515449D01*
X522806Y332188D02*
X527119D01*
X510528D02*
X515500D01*
X522857Y332239D02*
X527170D01*
X515246D02*
X515551D01*
X510477D02*
X515145D01*
X522908Y332289D02*
X527221D01*
X515297D02*
X515602D01*
X510426D02*
X515043D01*
X523009Y332340D02*
X527221D01*
X515399D02*
X515703D01*
X510426D02*
X514993D01*
X523060Y332391D02*
X527271D01*
X515449D02*
X515754D01*
X510376D02*
X514942D01*
X523111Y332441D02*
X527271D01*
X515500D02*
X515804D01*
X510325D02*
X514891D01*
X523162Y332492D02*
X527322D01*
X515551D02*
X515906D01*
X510325D02*
X514790D01*
X523212Y332543D02*
X527322D01*
X515602D02*
X515957D01*
X510274D02*
X514739D01*
X523263Y332594D02*
X527373D01*
X515703D02*
X516008D01*
X510274D02*
X514688D01*
X523314Y332644D02*
X527424D01*
X515754D02*
X516058D01*
X510223D02*
X514688D01*
X523364Y332695D02*
X527424D01*
X515804D02*
X516109D01*
X510223D02*
X514790D01*
X523415Y332746D02*
X527474D01*
X515906D02*
X516160D01*
X510173D02*
X514841D01*
X523517Y332797D02*
X527474D01*
X515957D02*
X516210D01*
X510122D02*
X514942D01*
X523517Y332847D02*
X527525D01*
X516008D02*
X516261D01*
X510122D02*
X514993D01*
X523567Y332898D02*
X527525D01*
X516058D02*
X516312D01*
X510122D02*
X515094D01*
X523618Y332949D02*
X527576D01*
X516058D02*
X516363D01*
X510071D02*
X515145D01*
X523669Y333000D02*
X527576D01*
X516109D02*
X516363D01*
X510071D02*
X515196D01*
X523720Y333050D02*
X527627D01*
X516160D02*
X516413D01*
X510020D02*
X515297D01*
X523770Y333101D02*
X527627D01*
X516210D02*
X516464D01*
X509970D02*
X515348D01*
X523821Y333152D02*
X527677D01*
X518595D02*
X519610D01*
X516261D02*
X516464D01*
X509970D02*
X515399D01*
X523872Y333203D02*
X527677D01*
X518392D02*
X519661D01*
X516261D02*
X516515D01*
X509919D02*
X515500D01*
X523923Y333253D02*
X527728D01*
X518189D02*
X519153D01*
X516312D02*
X516566D01*
X509919D02*
X515551D01*
X523923Y333304D02*
X527728D01*
X517986D02*
X518798D01*
X516363D02*
X516566D01*
X509919D02*
X515652D01*
X523973Y333355D02*
X527779D01*
X517733D02*
X518544D01*
X516363D02*
X516616D01*
X509868D02*
X515703D01*
X524024Y333405D02*
X527779D01*
X517530D02*
X518291D01*
X516413D02*
X516616D01*
X509868D02*
X515804D01*
X524075Y333456D02*
X527830D01*
X517327D02*
X518088D01*
X516413D02*
X516667D01*
X509817D02*
X515855D01*
X524126Y333507D02*
X527830D01*
X517225D02*
X517885D01*
X516464D02*
X516667D01*
X509817D02*
X515906D01*
X524126Y333558D02*
X527880D01*
X517073D02*
X517733D01*
X516464D02*
X516718D01*
X509767D02*
X516008D01*
X524176Y333608D02*
X527880D01*
X516971D02*
X517580D01*
X516515D02*
X516718D01*
X509767D02*
X516058D01*
X524227Y333659D02*
X527880D01*
X516515D02*
X517428D01*
X509716D02*
X516160D01*
X524227Y333710D02*
X527931D01*
X516566D02*
X517276D01*
X509716D02*
X516210D01*
X524278Y333761D02*
X527931D01*
X516566D02*
X517174D01*
X509716D02*
X516312D01*
X524329Y333811D02*
X527982D01*
X509665D02*
X517022D01*
X524329Y333862D02*
X527982D01*
X509665D02*
X516921D01*
X524379Y333913D02*
X527982D01*
X509615D02*
X516819D01*
X524430Y333964D02*
X528032D01*
X509615D02*
X516718D01*
X524430Y334014D02*
X528032D01*
X516464D02*
X516566D01*
X509615D02*
X516363D01*
X524481Y334065D02*
X528032D01*
X509564D02*
X516413D01*
X524532Y334116D02*
X528083D01*
X509564D02*
X516464D01*
X524532Y334167D02*
X528083D01*
X509513D02*
X516515D01*
X524582Y334217D02*
X528083D01*
X509513D02*
X516616D01*
X524582Y334268D02*
X528134D01*
X509513D02*
X516667D01*
X524633Y334319D02*
X528134D01*
X509462D02*
X516718D01*
X524633Y334369D02*
X528134D01*
X510578D02*
X516819D01*
X509462D02*
X510223D01*
X524684Y334420D02*
X528185D01*
X510680D02*
X516870D01*
X509411D02*
X510122D01*
X524734Y334471D02*
X528185D01*
X510680D02*
X516921D01*
X509411D02*
X510020D01*
X524734Y334522D02*
X528185D01*
X510680D02*
X517022D01*
X509411D02*
X509970D01*
X524785Y334572D02*
X528235D01*
X510680D02*
X517073D01*
X509361D02*
X509919D01*
X524785Y334623D02*
X528235D01*
X510680D02*
X517174D01*
X509361D02*
X509817D01*
X524836Y334674D02*
X528235D01*
X510680D02*
X517225D01*
X509361D02*
X509767D01*
X524836Y334725D02*
X528235D01*
X510629D02*
X517327D01*
X509361D02*
X509716D01*
X524887Y334775D02*
X528286D01*
X510578D02*
X517377D01*
X509361D02*
X509665D01*
X524887Y334826D02*
X528286D01*
X510578D02*
X517428D01*
X509361D02*
X509615D01*
X524937Y334877D02*
X528286D01*
X510528D02*
X517530D01*
X509310D02*
X509564D01*
X524937Y334928D02*
X528337D01*
X510528D02*
X517580D01*
X509259D02*
X509564D01*
X524937Y334978D02*
X528337D01*
X510477D02*
X517682D01*
X509209D02*
X509513D01*
X524988Y335029D02*
X528337D01*
X510477D02*
X517733D01*
X509158D02*
X509462D01*
X524988Y335080D02*
X528337D01*
X510477D02*
X517783D01*
X509107D02*
X509411D01*
X525039Y335131D02*
X528388D01*
X510426D02*
X517885D01*
X509006D02*
X509361D01*
X525039Y335181D02*
X528388D01*
X510426D02*
X517936D01*
X508346D02*
X509259D01*
X525090Y335232D02*
X528388D01*
X510426D02*
X518037D01*
X508194D02*
X509209D01*
X525090Y335283D02*
X528388D01*
X510426D02*
X518088D01*
X508092D02*
X509107D01*
X525090Y335333D02*
X528438D01*
X510426D02*
X518139D01*
X508803D02*
X509056D01*
X507940D02*
X508549D01*
X506114D02*
X506570D01*
X525140Y335384D02*
X528438D01*
X510731D02*
X518240D01*
X510426D02*
X510578D01*
X508803D02*
X508955D01*
X507889D02*
X508397D01*
X506063D02*
X506722D01*
X525140Y335435D02*
X528438D01*
X510832D02*
X518291D01*
X510426D02*
X510528D01*
X508803D02*
X508904D01*
X507788D02*
X508245D01*
X506012D02*
X506824D01*
X525140Y335486D02*
X528438D01*
X510934D02*
X518392D01*
X510426D02*
X510528D01*
X507686D02*
X508092D01*
X506012D02*
X506976D01*
X525191Y335537D02*
X528438D01*
X511035D02*
X518443D01*
X510477D02*
X510528D01*
X507585D02*
X507991D01*
X506570D02*
X507128D01*
X506012D02*
X506215D01*
X525191Y335587D02*
X528438D01*
X512760D02*
X518494D01*
X511187D02*
X512710D01*
X507534D02*
X507889D01*
X506722D02*
X507280D01*
X505961D02*
X506164D01*
X525191Y335638D02*
X528489D01*
X512862D02*
X518595D01*
X511289D02*
X512659D01*
X507433D02*
X507839D01*
X506824D02*
X507382D01*
X505961D02*
X506164D01*
X525242Y335689D02*
X528489D01*
X512913D02*
X518646D01*
X511340D02*
X512659D01*
X506976D02*
X507737D01*
X505961D02*
X506164D01*
X525242Y335739D02*
X528489D01*
X513014D02*
X518697D01*
X511441D02*
X512608D01*
X507128D02*
X507636D01*
X505961D02*
X506164D01*
X525242Y335790D02*
X528489D01*
X513065D02*
X518798D01*
X511492D02*
X512608D01*
X507230D02*
X507585D01*
X506012D02*
X506215D01*
X525293Y335841D02*
X528489D01*
X513166D02*
X518849D01*
X511593D02*
X512608D01*
X507230D02*
X507483D01*
X506012D02*
X506215D01*
X525293Y335892D02*
X528540D01*
X513217D02*
X518950D01*
X511644D02*
X512557D01*
X507230D02*
X507331D01*
X506012D02*
X506266D01*
X525293Y335942D02*
X528540D01*
X513268D02*
X519001D01*
X511695D02*
X512557D01*
X506063D02*
X506266D01*
X525343Y335993D02*
X528540D01*
X513369D02*
X519052D01*
X511796D02*
X512557D01*
X506063D02*
X506317D01*
X525343Y336044D02*
X528540D01*
X513420D02*
X519153D01*
X511847D02*
X512506D01*
X506114D02*
X506367D01*
X525343Y336095D02*
X528540D01*
X513521D02*
X519204D01*
X511898D02*
X512506D01*
X506114D02*
X506367D01*
X525343Y336145D02*
X528540D01*
X513572D02*
X519306D01*
X511948D02*
X512506D01*
X506164D02*
X506418D01*
X525343Y336196D02*
X528540D01*
X513978D02*
X519356D01*
X513673D02*
X513927D01*
X511999D02*
X512506D01*
X506215D02*
X506519D01*
X525394Y336247D02*
X528590D01*
X514079D02*
X519407D01*
X513673D02*
X513927D01*
X512101D02*
X512506D01*
X506266D02*
X506570D01*
X525394Y336297D02*
X528590D01*
X514130D02*
X519508D01*
X513673D02*
X513876D01*
X512151D02*
X512506D01*
X506317D02*
X506621D01*
X525394Y336348D02*
X528641D01*
X514181D02*
X519559D01*
X513623D02*
X513876D01*
X512202D02*
X512557D01*
X506367D02*
X506621D01*
X525394Y336399D02*
X528895D01*
X514282D02*
X519661D01*
X513623D02*
X513826D01*
X512253D02*
X512608D01*
X506418D02*
X506672D01*
X525394Y336450D02*
X528997D01*
X523060D02*
X523618D01*
X514333D02*
X519711D01*
X513572D02*
X513826D01*
X512354D02*
X512710D01*
X506469D02*
X506672D01*
X525394Y336501D02*
X529047D01*
X522959D02*
X523770D01*
X514435D02*
X519762D01*
X513572D02*
X513775D01*
X512405D02*
X512760D01*
X507027D02*
X507128D01*
X506469D02*
X506722D01*
X528743Y336551D02*
X529047D01*
X525445D02*
X528438D01*
X522908D02*
X523923D01*
X514485D02*
X519864D01*
X513521D02*
X513775D01*
X512506D02*
X512862D01*
X506925D02*
X507128D01*
X506519D02*
X506722D01*
X528844Y336602D02*
X529098D01*
X525445D02*
X528185D01*
X523517D02*
X524024D01*
X522908D02*
X523212D01*
X514536D02*
X519914D01*
X513521D02*
X513724D01*
X512557D02*
X512963D01*
X506824D02*
X507078D01*
X506519D02*
X506773D01*
X505352D02*
X505809D01*
X528895Y336653D02*
X529098D01*
X525445D02*
X528083D01*
X523720D02*
X524126D01*
X522857D02*
X523111D01*
X514638D02*
X520016D01*
X513471D02*
X513724D01*
X512659D02*
X513115D01*
X506469D02*
X507027D01*
X505302D02*
X506063D01*
X528946Y336703D02*
X529098D01*
X525445D02*
X527982D01*
X523872D02*
X524176D01*
X522857D02*
X523060D01*
X514688D02*
X520066D01*
X513471D02*
X513673D01*
X512710D02*
X513217D01*
X505251D02*
X506925D01*
X528946Y336754D02*
X529098D01*
X525445D02*
X527880D01*
X524024D02*
X524278D01*
X522857D02*
X523060D01*
X514790D02*
X520117D01*
X512811D02*
X513673D01*
X505708D02*
X506824D01*
X505200D02*
X505505D01*
X528895Y336805D02*
X529098D01*
X525445D02*
X527779D01*
X524126D02*
X524329D01*
X522806D02*
X523009D01*
X514841D02*
X520219D01*
X512963D02*
X513623D01*
X505911D02*
X506672D01*
X505150D02*
X505403D01*
X528895Y336856D02*
X529098D01*
X525293D02*
X527728D01*
X524227D02*
X524430D01*
X522857D02*
X523009D01*
X514891D02*
X520269D01*
X513065D02*
X513623D01*
X506114D02*
X506367D01*
X505150D02*
X505352D01*
X528844Y336906D02*
X529098D01*
X524785D02*
X527627D01*
X524329D02*
X524532D01*
X522857D02*
X522959D01*
X514993D02*
X520371D01*
X513217D02*
X513623D01*
X505150D02*
X505352D01*
X528793Y336957D02*
X529047D01*
X524430D02*
X527576D01*
X522857D02*
X522959D01*
X515043D02*
X520422D01*
X513471D02*
X513724D01*
X505150D02*
X505352D01*
X528743Y337008D02*
X528997D01*
X524481D02*
X527474D01*
X522857D02*
X522959D01*
X515145D02*
X520472D01*
X505150D02*
X505352D01*
X528692Y337059D02*
X528946D01*
X525648D02*
X527424D01*
X524582D02*
X524937D01*
X522857D02*
X522959D01*
X515196D02*
X520574D01*
X505150D02*
X505352D01*
X528590Y337109D02*
X528895D01*
X525749D02*
X527322D01*
X524684D02*
X524988D01*
X522857D02*
X523009D01*
X515246D02*
X520625D01*
X505150D02*
X505403D01*
X528540Y337160D02*
X528844D01*
X525901D02*
X527271D01*
X524734D02*
X525140D01*
X522908D02*
X523009D01*
X515348D02*
X520726D01*
X505200D02*
X505454D01*
X528489Y337211D02*
X528793D01*
X526003D02*
X527170D01*
X524836D02*
X525242D01*
X522908D02*
X523009D01*
X515399D02*
X520777D01*
X505251D02*
X505505D01*
X528438Y337262D02*
X528743D01*
X526104D02*
X527068D01*
X524937D02*
X525293D01*
X522908D02*
X523009D01*
X515500D02*
X520828D01*
X505251D02*
X505555D01*
X528337Y337312D02*
X528692D01*
X526257D02*
X526967D01*
X525191D02*
X525293D01*
X522959D02*
X523009D01*
X515551D02*
X520929D01*
X505352D02*
X505606D01*
X528286Y337363D02*
X528692D01*
X526510D02*
X526815D01*
X522959D02*
X523009D01*
X515602D02*
X520980D01*
X505403D02*
X505708D01*
X528235Y337414D02*
X528692D01*
X522959D02*
X523060D01*
X515703D02*
X521081D01*
X505454D02*
X505758D01*
X528134Y337464D02*
X528692D01*
X523009D02*
X523060D01*
X515754D02*
X521132D01*
X505505D02*
X505809D01*
X528083Y337515D02*
X528692D01*
X523009D02*
X523111D01*
X515855D02*
X521183D01*
X505555D02*
X505860D01*
X528083Y337566D02*
X528692D01*
X523009D02*
X523111D01*
X515906D02*
X521284D01*
X505606D02*
X505911D01*
X528032Y337617D02*
X528692D01*
X523060D02*
X523162D01*
X515957D02*
X521335D01*
X505657D02*
X505961D01*
X527982Y337667D02*
X528692D01*
X523060D02*
X523162D01*
X516058D02*
X521437D01*
X509817D02*
X509868D01*
X505708D02*
X506012D01*
X527982Y337718D02*
X528692D01*
X523111D02*
X523212D01*
X516109D02*
X521487D01*
X509411D02*
X509919D01*
X505758D02*
X506114D01*
X527880Y337769D02*
X528692D01*
X523162D02*
X523263D01*
X516210D02*
X521538D01*
X509310D02*
X509767D01*
X506672D02*
X506722D01*
X505809D02*
X506164D01*
X529352Y337820D02*
X529453D01*
X527880D02*
X528692D01*
X523162D02*
X523314D01*
X516261D02*
X521639D01*
X509209D02*
X509716D01*
X506621D02*
X506722D01*
X505911D02*
X506215D01*
X528895Y337870D02*
X529757D01*
X527931D02*
X528743D01*
X523212D02*
X523364D01*
X516312D02*
X521690D01*
X509107D02*
X509767D01*
X506570D02*
X506722D01*
X505961D02*
X506266D01*
X527982Y337921D02*
X529960D01*
X523263D02*
X523364D01*
X516413D02*
X521792D01*
X508955D02*
X509817D01*
X506519D02*
X506672D01*
X506063D02*
X506367D01*
X528083Y337972D02*
X530062D01*
X523263D02*
X523415D01*
X516464D02*
X521842D01*
X508853D02*
X509868D01*
X506114D02*
X506621D01*
X529605Y338023D02*
X530163D01*
X528235D02*
X529149D01*
X523314D02*
X523466D01*
X516515D02*
X521893D01*
X508752D02*
X509919D01*
X506164D02*
X506570D01*
X529808Y338073D02*
X530163D01*
X523314D02*
X523466D01*
X516616D02*
X521995D01*
X508650D02*
X509970D01*
X506215D02*
X506519D01*
X529960Y338124D02*
X530214D01*
X523263D02*
X523517D01*
X516667D02*
X522045D01*
X508498D02*
X510020D01*
X506164D02*
X506469D01*
X530011Y338175D02*
X530265D01*
X523162D02*
X523567D01*
X516769D02*
X522096D01*
X508955D02*
X510071D01*
X508397D02*
X508904D01*
X506063D02*
X506367D01*
X530062Y338226D02*
X530265D01*
X523060D02*
X523567D01*
X516819D02*
X522197D01*
X508955D02*
X510122D01*
X508295D02*
X508803D01*
X506012D02*
X506317D01*
X530062Y338276D02*
X530265D01*
X523466D02*
X523567D01*
X522959D02*
X523314D01*
X516870D02*
X522248D01*
X508955D02*
X510122D01*
X508194D02*
X508701D01*
X505911D02*
X506266D01*
X530062Y338327D02*
X530265D01*
X523517D02*
X523567D01*
X522908D02*
X523212D01*
X516971D02*
X522350D01*
X508955D02*
X510173D01*
X508092D02*
X508549D01*
X505809D02*
X506215D01*
X530062Y338378D02*
X530265D01*
X523517D02*
X523567D01*
X522857D02*
X523111D01*
X517022D02*
X522401D01*
X508955D02*
X510223D01*
X507991D02*
X508448D01*
X505708D02*
X506114D01*
X530062Y338428D02*
X530265D01*
X522756D02*
X523060D01*
X517124D02*
X522502D01*
X508955D02*
X510274D01*
X507839D02*
X508346D01*
X505555D02*
X506012D01*
X530011Y338479D02*
X530214D01*
X522756D02*
X523009D01*
X517174D02*
X522553D01*
X508955D02*
X510325D01*
X507737D02*
X508194D01*
X505403D02*
X505911D01*
X529960Y338530D02*
X530214D01*
X522756D02*
X522959D01*
X517225D02*
X522603D01*
X508955D02*
X510376D01*
X507636D02*
X508092D01*
X505251D02*
X505860D01*
X529910Y338581D02*
X530163D01*
X517327D02*
X522705D01*
X508955D02*
X510426D01*
X507534D02*
X507991D01*
X505200D02*
X505708D01*
X529859Y338632D02*
X530163D01*
X517377D02*
X522756D01*
X508955D02*
X510477D01*
X507433D02*
X507889D01*
X505150D02*
X505555D01*
X529757Y338682D02*
X530113D01*
X517479D02*
X522857D01*
X509006D02*
X510528D01*
X507280D02*
X507788D01*
X505048D02*
X505403D01*
X529656Y338733D02*
X530062D01*
X517530D02*
X522908D01*
X509006D02*
X510578D01*
X507179D02*
X507636D01*
X504997D02*
X505302D01*
X529504Y338784D02*
X530011D01*
X517580D02*
X522959D01*
X509006D02*
X510629D01*
X507078D02*
X507534D01*
X504997D02*
X505251D01*
X529352Y338834D02*
X529910D01*
X527677D02*
X527728D01*
X517682D02*
X523060D01*
X509006D02*
X510680D01*
X506976D02*
X507433D01*
X504997D02*
X505251D01*
X529098Y338885D02*
X529757D01*
X527627D02*
X527728D01*
X517733D02*
X523111D01*
X509006D02*
X510731D01*
X506824D02*
X507331D01*
X504997D02*
X505251D01*
X528793Y338936D02*
X529656D01*
X527627D02*
X527728D01*
X517834D02*
X523162D01*
X509006D02*
X510731D01*
X506672D02*
X507230D01*
X504997D02*
X505251D01*
X528540Y338987D02*
X529504D01*
X527627D02*
X527728D01*
X517885D02*
X523263D01*
X509006D02*
X510781D01*
X506519D02*
X507128D01*
X504997D02*
X505251D01*
X528235Y339037D02*
X529301D01*
X527627D02*
X527728D01*
X517936D02*
X523314D01*
X509006D02*
X510832D01*
X506367D02*
X506976D01*
X504997D02*
X505302D01*
X528083Y339088D02*
X528997D01*
X527627D02*
X527728D01*
X518037D02*
X523415D01*
X509006D02*
X510883D01*
X506164D02*
X506824D01*
X505048D02*
X505454D01*
X527931Y339139D02*
X528743D01*
X527576D02*
X527728D01*
X518088D02*
X523466D01*
X509056D02*
X510934D01*
X505099D02*
X506672D01*
X527576Y339190D02*
X528641D01*
X518189D02*
X523517D01*
X509056D02*
X510984D01*
X505200D02*
X506519D01*
X527627Y339240D02*
X528641D01*
X518240D02*
X523618D01*
X509056D02*
X511035D01*
X505302D02*
X506317D01*
X527627Y339291D02*
X528590D01*
X518291D02*
X523669D01*
X509056D02*
X511086D01*
X505505D02*
X506012D01*
X527627Y339342D02*
X528590D01*
X518392D02*
X523770D01*
X509056D02*
X511137D01*
X527677Y339393D02*
X528590D01*
X518443D02*
X523821D01*
X509056D02*
X511187D01*
X527677Y339443D02*
X528590D01*
X518544D02*
X523872D01*
X509056D02*
X511238D01*
X527677Y339494D02*
X528590D01*
X518595D02*
X523973D01*
X509107D02*
X511289D01*
X527728Y339545D02*
X528590D01*
X518646D02*
X524024D01*
X509107D02*
X511289D01*
X527728Y339596D02*
X528590D01*
X518747D02*
X524126D01*
X509107D02*
X511340D01*
X527779Y339646D02*
X528540D01*
X518798D02*
X524176D01*
X509107D02*
X511390D01*
X527830Y339697D02*
X528540D01*
X518900D02*
X524227D01*
X509107D02*
X511441D01*
X527880Y339748D02*
X528540D01*
X518950D02*
X524329D01*
X509158D02*
X511492D01*
X527880Y339798D02*
X528540D01*
X519001D02*
X524379D01*
X509158D02*
X511492D01*
X527931Y339849D02*
X528489D01*
X519102D02*
X524481D01*
X509158D02*
X511543D01*
X527982Y339900D02*
X528489D01*
X519153D02*
X524532D01*
X509158D02*
X511593D01*
X527982Y339951D02*
X528489D01*
X519255D02*
X524633D01*
X509158D02*
X511593D01*
X528032Y340001D02*
X528489D01*
X525800D02*
X525952D01*
X524937D02*
X525140D01*
X519306D02*
X524684D01*
X509209D02*
X511644D01*
X528083Y340052D02*
X528438D01*
X525901D02*
X526104D01*
X524937D02*
X525293D01*
X519356D02*
X524734D01*
X509209D02*
X511695D01*
X528134Y340103D02*
X528438D01*
X525952D02*
X526257D01*
X525039D02*
X525445D01*
X519458D02*
X524836D01*
X509209D02*
X511695D01*
X528134Y340154D02*
X528438D01*
X526003D02*
X526307D01*
X525090D02*
X525648D01*
X519508D02*
X524887D01*
X509209D02*
X511746D01*
X528185Y340204D02*
X528438D01*
X525090D02*
X526409D01*
X519610D02*
X524988D01*
X509209D02*
X511746D01*
X528235Y340255D02*
X528489D01*
X519661D02*
X526510D01*
X509259D02*
X511796D01*
X528286Y340306D02*
X528540D01*
X519711D02*
X526561D01*
X509259D02*
X511847D01*
X528337Y340357D02*
X528590D01*
X519813D02*
X526662D01*
X509259D02*
X511847D01*
X528388Y340407D02*
X528641D01*
X519864D02*
X526764D01*
X509259D02*
X511898D01*
X528438Y340458D02*
X528743D01*
X519965D02*
X526815D01*
X509310D02*
X511948D01*
X528489Y340509D02*
X528793D01*
X520016D02*
X526916D01*
X509310D02*
X511948D01*
X528540Y340560D02*
X528895D01*
X520066D02*
X526967D01*
X509310D02*
X511999D01*
X528590Y340610D02*
X528946D01*
X520168D02*
X527068D01*
X509361D02*
X512050D01*
X528692Y340661D02*
X528997D01*
X520219D02*
X527170D01*
X509361D02*
X512101D01*
X528743Y340712D02*
X529047D01*
X520320D02*
X527221D01*
X509361D02*
X512151D01*
X528793Y340762D02*
X529098D01*
X520371D02*
X527322D01*
X509361D02*
X512151D01*
X528844Y340813D02*
X529149D01*
X520422D02*
X527373D01*
X509411D02*
X512202D01*
X528946Y340864D02*
X529199D01*
X520523D02*
X527474D01*
X509411D02*
X512253D01*
X528997Y340915D02*
X529199D01*
X520574D02*
X527525D01*
X515804D02*
X516058D01*
X509411D02*
X512304D01*
X528997Y340965D02*
X529250D01*
X520675D02*
X527627D01*
X515652D02*
X516160D01*
X509462D02*
X512354D01*
X529047Y341016D02*
X529301D01*
X520726D02*
X527728D01*
X515602D02*
X516210D01*
X509462D02*
X512456D01*
X529098Y341067D02*
X529301D01*
X520777D02*
X527830D01*
X515551D02*
X516261D01*
X509462D02*
X512506D01*
X529098Y341118D02*
X529301D01*
X520878D02*
X527880D01*
X516008D02*
X516312D01*
X515500D02*
X515703D01*
X509513D02*
X512557D01*
X529149Y341168D02*
X529301D01*
X520929D02*
X527982D01*
X516109D02*
X516312D01*
X515500D02*
X515551D01*
X512963D02*
X513065D01*
X509513D02*
X512659D01*
X529098Y341219D02*
X529301D01*
X521031D02*
X528083D01*
X516160D02*
X516312D01*
X512862D02*
X513014D01*
X509513D02*
X512710D01*
X529098Y341270D02*
X529301D01*
X521081D02*
X528235D01*
X516210D02*
X516363D01*
X509564D02*
X512963D01*
X529047Y341321D02*
X529301D01*
X521132D02*
X528337D01*
X509564D02*
X512913D01*
X528997Y341371D02*
X529250D01*
X521234D02*
X528540D01*
X509564D02*
X512913D01*
X521284Y341422D02*
X529250D01*
X509615D02*
X512862D01*
X528185Y341473D02*
X529199D01*
X521386D02*
X528032D01*
X509615D02*
X512811D01*
X528337Y341524D02*
X529149D01*
X521437D02*
X527982D01*
X518798D02*
X518900D01*
X509665D02*
X512760D01*
X528641Y341574D02*
X528946D01*
X521487D02*
X527982D01*
X518849D02*
X518950D01*
X509665D02*
X512760D01*
X521589Y341625D02*
X527982D01*
X518900D02*
X519001D01*
X509665D02*
X512710D01*
X521639Y341676D02*
X527931D01*
X518900D02*
X519052D01*
X509716D02*
X512659D01*
X521741Y341726D02*
X527931D01*
X518950D02*
X519052D01*
X509716D02*
X512659D01*
X521792Y341777D02*
X527880D01*
X519001D02*
X519102D01*
X509767D02*
X512608D01*
X521842Y341828D02*
X527880D01*
X519001D02*
X519153D01*
X509767D02*
X512557D01*
X521944Y341879D02*
X527880D01*
X519052D02*
X519204D01*
X509767D02*
X512557D01*
X521995Y341930D02*
X527830D01*
X519052D02*
X519204D01*
X509817D02*
X512506D01*
X522096Y341980D02*
X527830D01*
X519102D02*
X519255D01*
X509817D02*
X512506D01*
X522147Y342031D02*
X527779D01*
X519102D02*
X519306D01*
X515754D02*
X515804D01*
X509868D02*
X512456D01*
X522197Y342082D02*
X527779D01*
X519153D02*
X519306D01*
X515602D02*
X515957D01*
X509868D02*
X512456D01*
X522299Y342132D02*
X527728D01*
X519153D02*
X519356D01*
X515551D02*
X516008D01*
X509919D02*
X512405D01*
X522350Y342183D02*
X527728D01*
X519204D02*
X519356D01*
X515500D02*
X516058D01*
X509919D02*
X512405D01*
X522451Y342234D02*
X527677D01*
X519204D02*
X519407D01*
X515500D02*
X516058D01*
X509970D02*
X512354D01*
X522502Y342285D02*
X527677D01*
X519204D02*
X519407D01*
X515449D02*
X516109D01*
X509970D02*
X512354D01*
X522553Y342335D02*
X527677D01*
X519255D02*
X519407D01*
X515449D02*
X516109D01*
X510020D02*
X512304D01*
X522654Y342386D02*
X527627D01*
X519255D02*
X519458D01*
X515449D02*
X516109D01*
X510020D02*
X512304D01*
X522705Y342437D02*
X527627D01*
X519255D02*
X519458D01*
X515399D02*
X516109D01*
X510071D02*
X512253D01*
X522806Y342488D02*
X527576D01*
X519306D02*
X519508D01*
X515399D02*
X516160D01*
X510071D02*
X512253D01*
X522806Y342538D02*
X527576D01*
X519306D02*
X519508D01*
X515399D02*
X516160D01*
X510122D02*
X512202D01*
X522705Y342589D02*
X527525D01*
X519306D02*
X519508D01*
X515399D02*
X516160D01*
X510122D02*
X512202D01*
X522654Y342640D02*
X527525D01*
X519306D02*
X519508D01*
X515399D02*
X516160D01*
X510173D02*
X512202D01*
X522603Y342690D02*
X527474D01*
X519356D02*
X519559D01*
X515399D02*
X516109D01*
X510173D02*
X512151D01*
X522502Y342741D02*
X527474D01*
X519356D02*
X519559D01*
X515399D02*
X516109D01*
X510223D02*
X512151D01*
X522857Y342792D02*
X527424D01*
X522401D02*
X522806D01*
X519356D02*
X519559D01*
X515399D02*
X516109D01*
X510223D02*
X512151D01*
X522959Y342843D02*
X527424D01*
X522299D02*
X522705D01*
X519356D02*
X519559D01*
X515399D02*
X516058D01*
X510274D02*
X512151D01*
X523009Y342894D02*
X527373D01*
X522147D02*
X522654D01*
X519407D02*
X519559D01*
X515449D02*
X516058D01*
X510274D02*
X512151D01*
X523009Y342944D02*
X527373D01*
X522045D02*
X522553D01*
X519407D02*
X519610D01*
X515449D02*
X516008D01*
X510325D02*
X512101D01*
X522959Y342995D02*
X527322D01*
X521893D02*
X522401D01*
X519407D02*
X519610D01*
X515500D02*
X516008D01*
X510325D02*
X512101D01*
X522857Y343046D02*
X527322D01*
X521792D02*
X522299D01*
X519407D02*
X519610D01*
X515500D02*
X515957D01*
X510376D02*
X512101D01*
X522806Y343096D02*
X527271D01*
X521639D02*
X522197D01*
X519407D02*
X519610D01*
X515551D02*
X515906D01*
X510426D02*
X512101D01*
X522756Y343147D02*
X527221D01*
X521386D02*
X522045D01*
X519407D02*
X519661D01*
X515652D02*
X515855D01*
X510426D02*
X512101D01*
X522654Y343198D02*
X527221D01*
X521132D02*
X521944D01*
X519407D02*
X519661D01*
X510477D02*
X512151D01*
X522603Y343249D02*
X527170D01*
X520929D02*
X521792D01*
X519407D02*
X519661D01*
X510477D02*
X512151D01*
X522502Y343299D02*
X527119D01*
X520574D02*
X521589D01*
X519407D02*
X519864D01*
X510528D02*
X512151D01*
X522451Y343350D02*
X527119D01*
X519407D02*
X521335D01*
X510578D02*
X512151D01*
X522350Y343401D02*
X527068D01*
X519407D02*
X521081D01*
X510578D02*
X512202D01*
X522299Y343452D02*
X527068D01*
X519711D02*
X520828D01*
X519407D02*
X519610D01*
X510629D02*
X512202D01*
X522197Y343502D02*
X527018D01*
X520016D02*
X520269D01*
X519407D02*
X519559D01*
X510680D02*
X512202D01*
X522147Y343553D02*
X526967D01*
X519407D02*
X519559D01*
X510680D02*
X512202D01*
X522045Y343604D02*
X526916D01*
X519356D02*
X519559D01*
X510731D02*
X512253D01*
X521995Y343655D02*
X526916D01*
X519356D02*
X519559D01*
X510731D02*
X512253D01*
X521893Y343705D02*
X526865D01*
X519356D02*
X519559D01*
X510781D02*
X512253D01*
X521792Y343756D02*
X526815D01*
X519356D02*
X519559D01*
X510832D02*
X512304D01*
X521690Y343807D02*
X526815D01*
X519306D02*
X519508D01*
X510832D02*
X512304D01*
X521589Y343858D02*
X526764D01*
X519306D02*
X519508D01*
X510883D02*
X512354D01*
X521487Y343908D02*
X526713D01*
X519255D02*
X519508D01*
X510934D02*
X512354D01*
X521335Y343959D02*
X526662D01*
X519255D02*
X519458D01*
X510984D02*
X512354D01*
X521234Y344010D02*
X526612D01*
X519255D02*
X519458D01*
X510984D02*
X512405D01*
X521081Y344060D02*
X526612D01*
X519204D02*
X519458D01*
X511035D02*
X512405D01*
X520980Y344111D02*
X526561D01*
X519204D02*
X519407D01*
X515754D02*
X516008D01*
X511086D02*
X512456D01*
X520777Y344162D02*
X526510D01*
X519204D02*
X519407D01*
X515652D02*
X516058D01*
X511086D02*
X512456D01*
X520625Y344213D02*
X526460D01*
X519153D02*
X519356D01*
X515602D02*
X516109D01*
X511137D02*
X512506D01*
X520472Y344263D02*
X526409D01*
X519153D02*
X519356D01*
X515551D02*
X516160D01*
X511187D02*
X512506D01*
X520269Y344314D02*
X526409D01*
X519102D02*
X519306D01*
X515906D02*
X516160D01*
X515551D02*
X515754D01*
X511238D02*
X512557D01*
X520066Y344365D02*
X526358D01*
X519102D02*
X519306D01*
X516008D02*
X516160D01*
X515551D02*
X515602D01*
X511238D02*
X512608D01*
X519864Y344416D02*
X526307D01*
X519052D02*
X519255D01*
X516058D02*
X516210D01*
X511289D02*
X512608D01*
X519661Y344466D02*
X526257D01*
X519001D02*
X519255D01*
X516109D02*
X516160D01*
X511340D02*
X512659D01*
X519001Y344517D02*
X526206D01*
X511390D02*
X512710D01*
X518950Y344568D02*
X526155D01*
X511441D02*
X512710D01*
X518950Y344619D02*
X526104D01*
X511441D02*
X512760D01*
X518900Y344669D02*
X526054D01*
X511492D02*
X512811D01*
X518849Y344720D02*
X526003D01*
X511543D02*
X512811D01*
X518849Y344771D02*
X526003D01*
X511593D02*
X512862D01*
X518798Y344822D02*
X525952D01*
X511644D02*
X512913D01*
X518798Y344872D02*
X525901D01*
X511695D02*
X512913D01*
X518747Y344923D02*
X525851D01*
X511746D02*
X512963D01*
X518697Y344974D02*
X525800D01*
X511796D02*
X513014D01*
X518697Y345024D02*
X525749D01*
X511847D02*
X513014D01*
X518646Y345075D02*
X525699D01*
X511898D02*
X513065D01*
X518646Y345126D02*
X525648D01*
X511948D02*
X513115D01*
X518595Y345177D02*
X525597D01*
X511999D02*
X513115D01*
X518595Y345227D02*
X525495D01*
X512050D02*
X513166D01*
X518544Y345278D02*
X525445D01*
X512101D02*
X513217D01*
X518544Y345329D02*
X525394D01*
X512151D02*
X513268D01*
X518494Y345380D02*
X525343D01*
X512202D02*
X513268D01*
X518494Y345430D02*
X525293D01*
X512253D02*
X513318D01*
X518443Y345481D02*
X525242D01*
X512304D02*
X513369D01*
X518443Y345532D02*
X525191D01*
X512354D02*
X513369D01*
X518443Y345583D02*
X525140D01*
X512405D02*
X513420D01*
X518392Y345633D02*
X525039D01*
X512506D02*
X513420D01*
X518392Y345684D02*
X524988D01*
X512557D02*
X513471D01*
X518392Y345735D02*
X524937D01*
X512608D02*
X513521D01*
X518392Y345786D02*
X524887D01*
X516464D02*
X516718D01*
X512659D02*
X513521D01*
X518392Y345836D02*
X524785D01*
X516464D02*
X516769D01*
X515043D02*
X515145D01*
X512760D02*
X513572D01*
X518341Y345887D02*
X524734D01*
X516413D02*
X516769D01*
X514993D02*
X515246D01*
X512811D02*
X513572D01*
X518341Y345938D02*
X524684D01*
X516413D02*
X516769D01*
X514942D02*
X515297D01*
X512862D02*
X513623D01*
X518341Y345988D02*
X524633D01*
X516413D02*
X516769D01*
X514891D02*
X515297D01*
X512913D02*
X513623D01*
X518341Y346039D02*
X524532D01*
X516413D02*
X516769D01*
X514891D02*
X515297D01*
X513014D02*
X513673D01*
X518341Y346090D02*
X524481D01*
X516413D02*
X516769D01*
X514891D02*
X515297D01*
X513065D02*
X513673D01*
X518341Y346141D02*
X524430D01*
X516413D02*
X516819D01*
X514891D02*
X515297D01*
X513166D02*
X513673D01*
X518341Y346192D02*
X524329D01*
X516413D02*
X516819D01*
X514891D02*
X515297D01*
X513217D02*
X513724D01*
X518341Y346242D02*
X524278D01*
X516413D02*
X516819D01*
X514891D02*
X515297D01*
X513268D02*
X513724D01*
X518341Y346293D02*
X524176D01*
X516413D02*
X516819D01*
X514891D02*
X515246D01*
X513318D02*
X513775D01*
X518341Y346344D02*
X524075D01*
X516464D02*
X516819D01*
X514891D02*
X515246D01*
X513420D02*
X513775D01*
X518341Y346394D02*
X524024D01*
X516464D02*
X516921D01*
X514891D02*
X515246D01*
X513521D02*
X513775D01*
X518341Y346445D02*
X523923D01*
X516464D02*
X516921D01*
X515348D02*
X515399D01*
X514891D02*
X515246D01*
X513572D02*
X513826D01*
X518341Y346496D02*
X523872D01*
X516515D02*
X516921D01*
X514942D02*
X515399D01*
X513623D02*
X513826D01*
X518341Y346547D02*
X523770D01*
X516566D02*
X516870D01*
X514942D02*
X515348D01*
X513623D02*
X513826D01*
X518341Y346597D02*
X523669D01*
X514993D02*
X515297D01*
X513673D02*
X513826D01*
X518341Y346648D02*
X523618D01*
X515094D02*
X515196D01*
X513673D02*
X513876D01*
X518341Y346699D02*
X523517D01*
X513673D02*
X513876D01*
X518341Y346750D02*
X523415D01*
X513673D02*
X513876D01*
X518341Y346800D02*
X523314D01*
X513724D02*
X513927D01*
X518341Y346851D02*
X523212D01*
X513724D02*
X513927D01*
X518341Y346902D02*
X523111D01*
X513724D02*
X513927D01*
X518341Y346953D02*
X523009D01*
X514739D02*
X514891D01*
X513775D02*
X513978D01*
X518291Y347003D02*
X522908D01*
X514739D02*
X514891D01*
X513775D02*
X513978D01*
X518291Y347054D02*
X522806D01*
X514739D02*
X514891D01*
X513775D02*
X513978D01*
X518291Y347105D02*
X522705D01*
X517022D02*
X517124D01*
X514739D02*
X514942D01*
X513826D02*
X514029D01*
X518291Y347155D02*
X522553D01*
X516971D02*
X517124D01*
X514790D02*
X514942D01*
X513826D02*
X514029D01*
X518240Y347206D02*
X522451D01*
X516921D02*
X517124D01*
X514790D02*
X514993D01*
X513876D02*
X514079D01*
X518240Y347257D02*
X522299D01*
X516819D02*
X517073D01*
X514841D02*
X514993D01*
X513876D02*
X514130D01*
X518240Y347308D02*
X522147D01*
X516769D02*
X517073D01*
X514891D02*
X515043D01*
X513927D02*
X514130D01*
X518189Y347358D02*
X521995D01*
X516718D02*
X517022D01*
X514942D02*
X515094D01*
X513927D02*
X514181D01*
X518139Y347409D02*
X521893D01*
X516616D02*
X516971D01*
X514993D02*
X515094D01*
X513978D02*
X514181D01*
X518139Y347460D02*
X521690D01*
X516566D02*
X516921D01*
X515094D02*
X515145D01*
X513978D02*
X514232D01*
X518088Y347511D02*
X521487D01*
X516566D02*
X516870D01*
X514029D02*
X514232D01*
X518088Y347561D02*
X521335D01*
X516566D02*
X516819D01*
X514029D02*
X514282D01*
X518037Y347612D02*
X521183D01*
X514079D02*
X514333D01*
X517986Y347663D02*
X520980D01*
X514130D02*
X514333D01*
X517986Y347714D02*
X520675D01*
X514130D02*
X514384D01*
X517936Y347764D02*
X520472D01*
X514181D02*
X514435D01*
X518189Y347815D02*
X520168D01*
X517885D02*
X518088D01*
X514232D02*
X514435D01*
X518240Y347866D02*
X519661D01*
X517885D02*
X518037D01*
X514232D02*
X514485D01*
X518291Y347917D02*
X519153D01*
X517834D02*
X517986D01*
X514282D02*
X514536D01*
X518392Y347967D02*
X519153D01*
X517783D02*
X517936D01*
X514333D02*
X514587D01*
X518544Y348018D02*
X519306D01*
X517783D02*
X517885D01*
X514384D02*
X514638D01*
X518697Y348069D02*
X519458D01*
X514384D02*
X514688D01*
X518950Y348119D02*
X519508D01*
X514435D02*
X514739D01*
X519153Y348170D02*
X519559D01*
X514485D02*
X514790D01*
X519306Y348221D02*
X519610D01*
X514536D02*
X514841D01*
X519407Y348272D02*
X519661D01*
X514587D02*
X514942D01*
X519458Y348323D02*
X519711D01*
X514638D02*
X515043D01*
X519508Y348373D02*
X519711D01*
X514739D02*
X515145D01*
X519508Y348424D02*
X519762D01*
X514841D02*
X515246D01*
X519559Y348475D02*
X519762D01*
X514942D02*
X515348D01*
X519610Y348525D02*
X519813D01*
X514993D02*
X515500D01*
X519610Y348576D02*
X519813D01*
X518950D02*
X519052D01*
X515094D02*
X515602D01*
X519661Y348627D02*
X519813D01*
X518849D02*
X519001D01*
X515246D02*
X515754D01*
X519661Y348678D02*
X519813D01*
X518798D02*
X519001D01*
X515348D02*
X516464D01*
X519661Y348728D02*
X519813D01*
X518697D02*
X519052D01*
X515449D02*
X516413D01*
X519661Y348779D02*
X519813D01*
X518646D02*
X519153D01*
X515551D02*
X516109D01*
X519661Y348830D02*
X519813D01*
X518595D02*
X519255D01*
X515804D02*
X516058D01*
X519610Y348881D02*
X519813D01*
X518900D02*
X519306D01*
X518544D02*
X518849D01*
X515906D02*
X516058D01*
X519001Y348931D02*
X519813D01*
X518494D02*
X518798D01*
X515906D02*
X516109D01*
X519102Y348982D02*
X519762D01*
X518443D02*
X518697D01*
X515906D02*
X516160D01*
X519204Y349033D02*
X519711D01*
X518392D02*
X518646D01*
X515957D02*
X516261D01*
X519306Y349084D02*
X519610D01*
X518392D02*
X518646D01*
X516008D02*
X516312D01*
X518341Y349134D02*
X518595D01*
X516058D02*
X516363D01*
X518341Y349185D02*
X518544D01*
X516109D02*
X516464D01*
X518291Y349236D02*
X518544D01*
X516210D02*
X516515D01*
X518291Y349287D02*
X518494D01*
X516261D02*
X516616D01*
X518240Y349337D02*
X518494D01*
X516312D02*
X516718D01*
X518240Y349388D02*
X518443D01*
X516413D02*
X516769D01*
X518189Y349439D02*
X518392D01*
X516464D02*
X516870D01*
X518189Y349489D02*
X518392D01*
X516566D02*
X516921D01*
X518139Y349540D02*
X518341D01*
X516616D02*
X517022D01*
X518088Y349591D02*
X518341D01*
X516718D02*
X517124D01*
X517936Y349642D02*
X518291D01*
X516819D02*
X517276D01*
X517783Y349692D02*
X518291D01*
X516870D02*
X517428D01*
X517022Y349743D02*
X518189D01*
X517124Y349794D02*
X518139D01*
X517225Y349845D02*
X518037D01*
X517377Y349895D02*
X517885D01*
D60*
X422309Y314172D02*
X420997D01*
X421653D01*
Y310892D01*
X420997Y310236D01*
X420341D01*
X419685Y310892D01*
X426245Y310236D02*
X423621D01*
X426245Y312860D01*
Y313516D01*
X425589Y314172D01*
X424277D01*
X423621Y313516D01*
X619159Y311416D02*
X617847D01*
X618503D01*
Y308136D01*
X617847Y307480D01*
X617191D01*
X616535Y308136D01*
X620471Y307480D02*
X621783D01*
X621127D01*
Y311416D01*
X620471Y310760D01*
X470472Y477164D02*
X473096Y473228D01*
Y477164D02*
X470472Y473228D01*
X474408D02*
X475720D01*
X475064D01*
Y477164D01*
X474408Y476508D01*
X484252Y397637D02*
Y394357D01*
X484908Y393701D01*
X486220D01*
X486876Y394357D01*
Y397637D01*
X490156Y393701D02*
Y397637D01*
X488188Y395669D01*
X490811D01*
X535039Y417715D02*
Y414435D01*
X535695Y413779D01*
X537007D01*
X537663Y414435D01*
Y417715D01*
X538975Y417059D02*
X539631Y417715D01*
X540943D01*
X541599Y417059D01*
Y416403D01*
X540943Y415747D01*
X540287D01*
X540943D01*
X541599Y415091D01*
Y414435D01*
X540943Y413779D01*
X539631D01*
X538975Y414435D01*
X601968Y433070D02*
Y429790D01*
X602625Y429134D01*
X603936D01*
X604592Y429790D01*
Y433070D01*
X608528Y429134D02*
X605904D01*
X608528Y431758D01*
Y432414D01*
X607872Y433070D01*
X606560D01*
X605904Y432414D01*
X464567Y408266D02*
Y404987D01*
X465223Y404331D01*
X466535D01*
X467191Y404987D01*
Y408266D01*
X468503Y404331D02*
X469815D01*
X469159D01*
Y408266D01*
X468503Y407611D01*
X438976Y394094D02*
Y398030D01*
X440944D01*
X441600Y397374D01*
Y396062D01*
X440944Y395406D01*
X438976D01*
X440288D02*
X441600Y394094D01*
X442912Y397374D02*
X443568Y398030D01*
X444880D01*
X445536Y397374D01*
Y396718D01*
X444880Y396062D01*
X444224D01*
X444880D01*
X445536Y395406D01*
Y394750D01*
X444880Y394094D01*
X443568D01*
X442912Y394750D01*
X446848Y394094D02*
X448160D01*
X447504D01*
Y398030D01*
X446848Y397374D01*
X438976Y442520D02*
Y446455D01*
X440944D01*
X441600Y445799D01*
Y444488D01*
X440944Y443832D01*
X438976D01*
X440288D02*
X441600Y442520D01*
X442912Y445799D02*
X443568Y446455D01*
X444880D01*
X445536Y445799D01*
Y445144D01*
X444880Y444488D01*
X444224D01*
X444880D01*
X445536Y443832D01*
Y443176D01*
X444880Y442520D01*
X443568D01*
X442912Y443176D01*
X446848Y445799D02*
X447504Y446455D01*
X448816D01*
X449472Y445799D01*
Y443176D01*
X448816Y442520D01*
X447504D01*
X446848Y443176D01*
Y445799D01*
X647638Y455512D02*
Y459447D01*
X649606D01*
X650262Y458792D01*
Y457480D01*
X649606Y456824D01*
X647638D01*
X648950D02*
X650262Y455512D01*
X654197D02*
X651574D01*
X654197Y458136D01*
Y458792D01*
X653541Y459447D01*
X652229D01*
X651574Y458792D01*
X655509Y456168D02*
X656165Y455512D01*
X657477D01*
X658133Y456168D01*
Y458792D01*
X657477Y459447D01*
X656165D01*
X655509Y458792D01*
Y458136D01*
X656165Y457480D01*
X658133D01*
X562598Y394193D02*
X558663D01*
Y396161D01*
X559319Y396817D01*
X560631D01*
X561286Y396161D01*
Y394193D01*
Y395505D02*
X562598Y396817D01*
Y398129D02*
Y399441D01*
Y398785D01*
X558663D01*
X559319Y398129D01*
X558663Y401408D02*
Y404032D01*
X559319D01*
X561942Y401408D01*
X562598D01*
X484252Y304724D02*
Y308660D01*
X486220D01*
X486876Y308004D01*
Y306692D01*
X486220Y306036D01*
X484252D01*
X485564D02*
X486876Y304724D01*
X488188D02*
X489500D01*
X488844D01*
Y308660D01*
X488188Y308004D01*
X494091Y308660D02*
X492779Y308004D01*
X491468Y306692D01*
Y305380D01*
X492123Y304724D01*
X493435D01*
X494091Y305380D01*
Y306036D01*
X493435Y306692D01*
X491468D01*
X486221Y284646D02*
X482285D01*
Y286613D01*
X482941Y287269D01*
X484253D01*
X484909Y286613D01*
Y284646D01*
Y285958D02*
X486221Y287269D01*
Y288581D02*
Y289893D01*
Y289237D01*
X482285D01*
X482941Y288581D01*
X482285Y294485D02*
Y291861D01*
X484253D01*
X483597Y293173D01*
Y293829D01*
X484253Y294485D01*
X485565D01*
X486221Y293829D01*
Y292517D01*
X485565Y291861D01*
X550394Y350787D02*
Y354723D01*
X552362D01*
X553018Y354067D01*
Y352755D01*
X552362Y352099D01*
X550394D01*
X551706D02*
X553018Y350787D01*
X554329D02*
X555641D01*
X554985D01*
Y354723D01*
X554329Y354067D01*
X559577Y350787D02*
Y354723D01*
X557609Y352755D01*
X560233D01*
X550394Y345079D02*
Y349014D01*
X552362D01*
X553018Y348358D01*
Y347047D01*
X552362Y346391D01*
X550394D01*
X551706D02*
X553018Y345079D01*
X554329D02*
X555641D01*
X554985D01*
Y349014D01*
X554329Y348358D01*
X557609D02*
X558265Y349014D01*
X559577D01*
X560233Y348358D01*
Y347703D01*
X559577Y347047D01*
X558921D01*
X559577D01*
X560233Y346391D01*
Y345735D01*
X559577Y345079D01*
X558265D01*
X557609Y345735D01*
X438976Y424803D02*
Y428739D01*
X440944D01*
X441600Y428083D01*
Y426771D01*
X440944Y426115D01*
X438976D01*
X440288D02*
X441600Y424803D01*
X442912D02*
X444224D01*
X443568D01*
Y428739D01*
X442912Y428083D01*
X448816Y424803D02*
X446192D01*
X448816Y427427D01*
Y428083D01*
X448160Y428739D01*
X446848D01*
X446192Y428083D01*
X438976Y430709D02*
Y434644D01*
X440944D01*
X441600Y433988D01*
Y432677D01*
X440944Y432021D01*
X438976D01*
X440288D02*
X441600Y430709D01*
X442912D02*
X444224D01*
X443568D01*
Y434644D01*
X442912Y433988D01*
X446192Y430709D02*
X447504D01*
X446848D01*
Y434644D01*
X446192Y433988D01*
X438976Y436614D02*
Y440550D01*
X440944D01*
X441600Y439894D01*
Y438582D01*
X440944Y437926D01*
X438976D01*
X440288D02*
X441600Y436614D01*
X442912D02*
X444224D01*
X443568D01*
Y440550D01*
X442912Y439894D01*
X446192D02*
X446848Y440550D01*
X448160D01*
X448816Y439894D01*
Y437270D01*
X448160Y436614D01*
X446848D01*
X446192Y437270D01*
Y439894D01*
X438976Y410236D02*
Y414172D01*
X440944D01*
X441600Y413516D01*
Y412204D01*
X440944Y411548D01*
X438976D01*
X440288D02*
X441600Y410236D01*
X442912Y413516D02*
X443568Y414172D01*
X444880D01*
X445536Y413516D01*
Y412860D01*
X444880Y412204D01*
X445536Y411548D01*
Y410892D01*
X444880Y410236D01*
X443568D01*
X442912Y410892D01*
Y411548D01*
X443568Y412204D01*
X442912Y412860D01*
Y413516D01*
X443568Y412204D02*
X444880D01*
X605905Y420472D02*
Y424408D01*
X607873D01*
X608529Y423752D01*
Y422440D01*
X607873Y421784D01*
X605905D01*
X607217D02*
X608529Y420472D01*
X609841Y424408D02*
X612465D01*
Y423752D01*
X609841Y421128D01*
Y420472D01*
X614173Y437402D02*
X610238D01*
Y439369D01*
X610893Y440025D01*
X612205D01*
X612861Y439369D01*
Y437402D01*
Y438714D02*
X614173Y440025D01*
X610238Y443961D02*
X610893Y442649D01*
X612205Y441337D01*
X613517D01*
X614173Y441993D01*
Y443305D01*
X613517Y443961D01*
X612861D01*
X612205Y443305D01*
Y441337D01*
X453543Y436614D02*
Y440550D01*
X455511D01*
X456167Y439894D01*
Y438582D01*
X455511Y437926D01*
X453543D01*
X454855D02*
X456167Y436614D01*
X460103Y440550D02*
X457479D01*
Y438582D01*
X458791Y439238D01*
X459447D01*
X460103Y438582D01*
Y437270D01*
X459447Y436614D01*
X458135D01*
X457479Y437270D01*
X605118Y318898D02*
X601182D01*
Y320866D01*
X601838Y321521D01*
X603150D01*
X603806Y320866D01*
Y318898D01*
Y320210D02*
X605118Y321521D01*
Y324801D02*
X601182D01*
X603150Y322833D01*
Y325457D01*
X597244Y318898D02*
X593308D01*
Y320866D01*
X593964Y321521D01*
X595276D01*
X595932Y320866D01*
Y318898D01*
Y320210D02*
X597244Y321521D01*
X593964Y322833D02*
X593308Y323489D01*
Y324801D01*
X593964Y325457D01*
X594620D01*
X595276Y324801D01*
Y324145D01*
Y324801D01*
X595932Y325457D01*
X596588D01*
X597244Y324801D01*
Y323489D01*
X596588Y322833D01*
X589370Y318898D02*
X585434D01*
Y320866D01*
X586090Y321521D01*
X587402D01*
X588058Y320866D01*
Y318898D01*
Y320210D02*
X589370Y321521D01*
Y325457D02*
Y322833D01*
X586746Y325457D01*
X586090D01*
X585434Y324801D01*
Y323489D01*
X586090Y322833D01*
X581496Y318898D02*
X577560D01*
Y320866D01*
X578216Y321521D01*
X579528D01*
X580184Y320866D01*
Y318898D01*
Y320210D02*
X581496Y321521D01*
Y322833D02*
Y324145D01*
Y323489D01*
X577560D01*
X578216Y322833D01*
X665222Y340026D02*
Y342650D01*
X664566Y343306D01*
X663254D01*
X662598Y342650D01*
Y340026D01*
X663254Y339370D01*
X664566D01*
X663910Y340682D02*
X665222Y339370D01*
X664566D02*
X665222Y340026D01*
X666534Y342650D02*
X667190Y343306D01*
X668502D01*
X669158Y342650D01*
Y341994D01*
X668502Y341338D01*
X667846D01*
X668502D01*
X669158Y340682D01*
Y340026D01*
X668502Y339370D01*
X667190D01*
X666534Y340026D01*
X665222Y379396D02*
Y382020D01*
X664566Y382676D01*
X663254D01*
X662598Y382020D01*
Y379396D01*
X663254Y378740D01*
X664566D01*
X663910Y380052D02*
X665222Y378740D01*
X664566D02*
X665222Y379396D01*
X669158Y378740D02*
X666534D01*
X669158Y381364D01*
Y382020D01*
X668502Y382676D01*
X667190D01*
X666534Y382020D01*
X665616Y419947D02*
Y422571D01*
X664960Y423227D01*
X663648D01*
X662992Y422571D01*
Y419947D01*
X663648Y419291D01*
X664960D01*
X664304Y420603D02*
X665616Y419291D01*
X664960D02*
X665616Y419947D01*
X666928Y419291D02*
X668240D01*
X667584D01*
Y423227D01*
X666928Y422571D01*
X564568Y427165D02*
X568504D01*
Y429789D01*
Y431101D02*
Y432413D01*
Y431757D01*
X564568D01*
X565224Y431101D01*
X512600Y446457D02*
X516535D01*
Y448425D01*
X515879Y449081D01*
X513256D01*
X512600Y448425D01*
Y446457D01*
Y453016D02*
X513256Y451704D01*
X514568Y450392D01*
X515879D01*
X516535Y451048D01*
Y452360D01*
X515879Y453016D01*
X515224D01*
X514568Y452360D01*
Y450392D01*
X518899Y446457D02*
X522835D01*
Y448425D01*
X522179Y449081D01*
X519555D01*
X518899Y448425D01*
Y446457D01*
Y453016D02*
Y450392D01*
X520867D01*
X520211Y451704D01*
Y452360D01*
X520867Y453016D01*
X522179D01*
X522835Y452360D01*
Y451048D01*
X522179Y450392D01*
X416929Y442912D02*
Y438976D01*
X418897D01*
X419553Y439632D01*
Y442256D01*
X418897Y442912D01*
X416929D01*
X422833Y438976D02*
Y442912D01*
X420865Y440944D01*
X423489D01*
X613386Y471259D02*
Y467323D01*
X615354D01*
X616010Y467979D01*
Y470603D01*
X615354Y471259D01*
X613386D01*
X619945Y467323D02*
X617322D01*
X619945Y469947D01*
Y470603D01*
X619289Y471259D01*
X617978D01*
X617322Y470603D01*
X632283Y459447D02*
Y455512D01*
X634251D01*
X634907Y456168D01*
Y458792D01*
X634251Y459447D01*
X632283D01*
X636219Y455512D02*
X637531D01*
X636875D01*
Y459447D01*
X636219Y458792D01*
X460891Y380445D02*
X460236Y381101D01*
X458924D01*
X458268Y380445D01*
Y377821D01*
X458924Y377165D01*
X460236D01*
X460891Y377821D01*
X462204Y380445D02*
X462859Y381101D01*
X464171D01*
X464827Y380445D01*
Y379789D01*
X464171Y379133D01*
X463515D01*
X464171D01*
X464827Y378477D01*
Y377821D01*
X464171Y377165D01*
X462859D01*
X462204Y377821D01*
X468107Y377165D02*
Y381101D01*
X466139Y379133D01*
X468763D01*
X577429Y334120D02*
X576773Y333464D01*
Y332152D01*
X577429Y331496D01*
X580053D01*
X580709Y332152D01*
Y333464D01*
X580053Y334120D01*
X580709Y338056D02*
Y335432D01*
X578085Y338056D01*
X577429D01*
X576773Y337400D01*
Y336088D01*
X577429Y335432D01*
X576773Y341991D02*
X577429Y340679D01*
X578741Y339368D01*
X580053D01*
X580709Y340023D01*
Y341335D01*
X580053Y341991D01*
X579397D01*
X578741Y341335D01*
Y339368D01*
X575854Y396718D02*
X575198Y396062D01*
Y394750D01*
X575854Y394094D01*
X578478D01*
X579134Y394750D01*
Y396062D01*
X578478Y396718D01*
X579134Y400654D02*
Y398030D01*
X576510Y400654D01*
X575854D01*
X575198Y399998D01*
Y398686D01*
X575854Y398030D01*
X579134Y404590D02*
Y401966D01*
X576510Y404590D01*
X575854D01*
X575198Y403934D01*
Y402622D01*
X575854Y401966D01*
X564830Y396817D02*
X564175Y396161D01*
Y394849D01*
X564830Y394193D01*
X567454D01*
X568110Y394849D01*
Y396161D01*
X567454Y396817D01*
X568110Y400752D02*
Y398129D01*
X565486Y400752D01*
X564830D01*
X564175Y400097D01*
Y398785D01*
X564830Y398129D01*
X568110Y402064D02*
Y403376D01*
Y402720D01*
X564175D01*
X564830Y402064D01*
X548295Y396817D02*
X547639Y396161D01*
Y394849D01*
X548295Y394193D01*
X550919D01*
X551575Y394849D01*
Y396161D01*
X550919Y396817D01*
X551575Y400752D02*
Y398129D01*
X548951Y400752D01*
X548295D01*
X547639Y400097D01*
Y398785D01*
X548295Y398129D01*
Y402064D02*
X547639Y402720D01*
Y404032D01*
X548295Y404688D01*
X550919D01*
X551575Y404032D01*
Y402720D01*
X550919Y402064D01*
X548295D01*
X634120Y344618D02*
X633464Y345274D01*
X632152D01*
X631496Y344618D01*
Y341995D01*
X632152Y341339D01*
X633464D01*
X634120Y341995D01*
X635432Y341339D02*
X636744D01*
X636088D01*
Y345274D01*
X635432Y344618D01*
X638712Y341995D02*
X639367Y341339D01*
X640679D01*
X641335Y341995D01*
Y344618D01*
X640679Y345274D01*
X639367D01*
X638712Y344618D01*
Y343962D01*
X639367Y343306D01*
X641335D01*
X634120Y358004D02*
X633464Y358660D01*
X632152D01*
X631496Y358004D01*
Y355380D01*
X632152Y354724D01*
X633464D01*
X634120Y355380D01*
X635432Y354724D02*
X636744D01*
X636088D01*
Y358660D01*
X635432Y358004D01*
X638712D02*
X639367Y358660D01*
X640679D01*
X641335Y358004D01*
Y357348D01*
X640679Y356692D01*
X641335Y356036D01*
Y355380D01*
X640679Y354724D01*
X639367D01*
X638712Y355380D01*
Y356036D01*
X639367Y356692D01*
X638712Y357348D01*
Y358004D01*
X639367Y356692D02*
X640679D01*
X639791Y403175D02*
X639135Y402519D01*
Y401207D01*
X639791Y400551D01*
X642415D01*
X643071Y401207D01*
Y402519D01*
X642415Y403175D01*
X643071Y404487D02*
Y405799D01*
Y405143D01*
X639135D01*
X639791Y404487D01*
X639135Y407767D02*
Y410391D01*
X639791D01*
X642415Y407767D01*
X643071D01*
X553807Y396817D02*
X553151Y396161D01*
Y394849D01*
X553807Y394193D01*
X556431D01*
X557087Y394849D01*
Y396161D01*
X556431Y396817D01*
X557087Y398129D02*
Y399441D01*
Y398785D01*
X553151D01*
X553807Y398129D01*
X553151Y404032D02*
X553807Y402720D01*
X555119Y401408D01*
X556431D01*
X557087Y402064D01*
Y403376D01*
X556431Y404032D01*
X555775D01*
X555119Y403376D01*
Y401408D01*
X570342Y396718D02*
X569686Y396062D01*
Y394750D01*
X570342Y394094D01*
X572966D01*
X573622Y394750D01*
Y396062D01*
X572966Y396718D01*
X573622Y398030D02*
Y399342D01*
Y398686D01*
X569686D01*
X570342Y398030D01*
X569686Y403934D02*
Y401310D01*
X571654D01*
X570998Y402622D01*
Y403278D01*
X571654Y403934D01*
X572966D01*
X573622Y403278D01*
Y401966D01*
X572966Y401310D01*
X516602Y403608D02*
X515946Y402952D01*
Y401640D01*
X516602Y400984D01*
X519226D01*
X519882Y401640D01*
Y402952D01*
X519226Y403608D01*
X519882Y404920D02*
Y406232D01*
Y405576D01*
X515946D01*
X516602Y404920D01*
X519882Y410824D02*
Y408200D01*
X517258Y410824D01*
X516602D01*
X515946Y410168D01*
Y408856D01*
X516602Y408200D01*
X548687Y381626D02*
X548031Y382282D01*
X546719D01*
X546063Y381626D01*
Y379002D01*
X546719Y378346D01*
X548031D01*
X548687Y379002D01*
X549999Y378346D02*
X551311D01*
X550655D01*
Y382282D01*
X549999Y381626D01*
X553278Y378346D02*
X554590D01*
X553934D01*
Y382282D01*
X553278Y381626D01*
X548687Y387138D02*
X548031Y387794D01*
X546719D01*
X546063Y387138D01*
Y384514D01*
X546719Y383858D01*
X548031D01*
X548687Y384514D01*
X549999Y383858D02*
X551311D01*
X550655D01*
Y387794D01*
X549999Y387138D01*
X553278D02*
X553934Y387794D01*
X555246D01*
X555902Y387138D01*
Y384514D01*
X555246Y383858D01*
X553934D01*
X553278Y384514D01*
Y387138D01*
X464435Y361547D02*
X463779Y362204D01*
X462467D01*
X461811Y361547D01*
Y358924D01*
X462467Y358268D01*
X463779D01*
X464435Y358924D01*
X465747D02*
X466403Y358268D01*
X467715D01*
X468371Y358924D01*
Y361547D01*
X467715Y362204D01*
X466403D01*
X465747Y361547D01*
Y360892D01*
X466403Y360236D01*
X468371D01*
X464435Y370603D02*
X463779Y371259D01*
X462467D01*
X461811Y370603D01*
Y367979D01*
X462467Y367323D01*
X463779D01*
X464435Y367979D01*
X465747Y370603D02*
X466403Y371259D01*
X467715D01*
X468371Y370603D01*
Y369947D01*
X467715Y369291D01*
X468371Y368635D01*
Y367979D01*
X467715Y367323D01*
X466403D01*
X465747Y367979D01*
Y368635D01*
X466403Y369291D01*
X465747Y369947D01*
Y370603D01*
X466403Y369291D02*
X467715D01*
X510498Y417059D02*
X509842Y417715D01*
X508530D01*
X507874Y417059D01*
Y414435D01*
X508530Y413779D01*
X509842D01*
X510498Y414435D01*
X511810Y417715D02*
X514434D01*
Y417059D01*
X511810Y414435D01*
Y413779D01*
X553807Y431758D02*
X553151Y431102D01*
Y429790D01*
X553807Y429134D01*
X556431D01*
X557087Y429790D01*
Y431102D01*
X556431Y431758D01*
X553151Y435693D02*
X553807Y434381D01*
X555119Y433070D01*
X556431D01*
X557087Y433726D01*
Y435038D01*
X556431Y435693D01*
X555775D01*
X555119Y435038D01*
Y433070D01*
X564437Y466403D02*
X563781Y465747D01*
Y464435D01*
X564437Y463779D01*
X567061D01*
X567717Y464435D01*
Y465747D01*
X567061Y466403D01*
X563781Y470339D02*
Y467715D01*
X565749D01*
X565093Y469027D01*
Y469683D01*
X565749Y470339D01*
X567061D01*
X567717Y469683D01*
Y468371D01*
X567061Y467715D01*
X616010Y459579D02*
X615354Y460235D01*
X614042D01*
X613386Y459579D01*
Y456955D01*
X614042Y456299D01*
X615354D01*
X616010Y456955D01*
X619289Y456299D02*
Y460235D01*
X617322Y458267D01*
X619945D01*
X574671Y427295D02*
X574015Y427951D01*
X572703D01*
X572047Y427295D01*
Y424672D01*
X572703Y424016D01*
X574015D01*
X574671Y424672D01*
X575983Y427295D02*
X576639Y427951D01*
X577951D01*
X578607Y427295D01*
Y426640D01*
X577951Y425984D01*
X577295D01*
X577951D01*
X578607Y425328D01*
Y424672D01*
X577951Y424016D01*
X576639D01*
X575983Y424672D01*
X476642Y440813D02*
X475985Y440157D01*
Y438845D01*
X476642Y438189D01*
X479265D01*
X479921Y438845D01*
Y440157D01*
X479265Y440813D01*
X479921Y444748D02*
Y442125D01*
X477297Y444748D01*
X476642D01*
X475985Y444093D01*
Y442781D01*
X476642Y442125D01*
X453807Y405773D02*
X453151Y405118D01*
Y403806D01*
X453807Y403150D01*
X456431D01*
X457087Y403806D01*
Y405118D01*
X456431Y405773D01*
X457087Y407085D02*
Y408397D01*
Y407741D01*
X453151D01*
X453807Y407085D01*
X605905Y414173D02*
Y418109D01*
X607873D01*
X608529Y417453D01*
Y416141D01*
X607873Y415485D01*
X605905D01*
X607217D02*
X608529Y414173D01*
X609841Y414829D02*
X610497Y414173D01*
X611809D01*
X612465Y414829D01*
Y417453D01*
X611809Y418109D01*
X610497D01*
X609841Y417453D01*
Y416797D01*
X610497Y416141D01*
X612465D01*
X716537Y434646D02*
X720472D01*
Y436614D01*
X719816Y437269D01*
X717193D01*
X716537Y436614D01*
Y434646D01*
X720472Y438581D02*
Y439893D01*
Y439237D01*
X716537D01*
X717193Y438581D01*
X720472Y444485D02*
Y441861D01*
X717849Y444485D01*
X717193D01*
X716537Y443829D01*
Y442517D01*
X717193Y441861D01*
X640546Y320093D02*
Y316158D01*
X642514D01*
X643169Y316813D01*
Y319437D01*
X642514Y320093D01*
X640546D01*
X644481Y316158D02*
X645793D01*
X645137D01*
Y320093D01*
X644481Y319437D01*
X647761D02*
X648417Y320093D01*
X649729D01*
X650385Y319437D01*
Y318781D01*
X649729Y318125D01*
X649073D01*
X649729D01*
X650385Y317469D01*
Y316813D01*
X649729Y316158D01*
X648417D01*
X647761Y316813D01*
X682415Y459317D02*
X679791D01*
X679135Y458661D01*
Y457349D01*
X679791Y456693D01*
X682415D01*
X683071Y457349D01*
Y458661D01*
X681759Y458005D02*
X683071Y459317D01*
Y458661D02*
X682415Y459317D01*
X679135Y460629D02*
Y463252D01*
X679791D01*
X682415Y460629D01*
X683071D01*
X692913Y437402D02*
X688978D01*
Y439369D01*
X689634Y440025D01*
X690945D01*
X691602Y439369D01*
Y437402D01*
Y438714D02*
X692913Y440025D01*
X689634Y441337D02*
X688978Y441993D01*
Y443305D01*
X689634Y443961D01*
X690290D01*
X690945Y443305D01*
Y442649D01*
Y443305D01*
X691602Y443961D01*
X692257D01*
X692913Y443305D01*
Y441993D01*
X692257Y441337D01*
X692913Y447897D02*
Y445273D01*
X690290Y447897D01*
X689634D01*
X688978Y447241D01*
Y445929D01*
X689634Y445273D01*
X612992Y388975D02*
Y385695D01*
X613648Y385039D01*
X614960D01*
X615616Y385695D01*
Y388975D01*
X619552D02*
X616928D01*
Y387007D01*
X618240Y387663D01*
X618896D01*
X619552Y387007D01*
Y385695D01*
X618896Y385039D01*
X617584D01*
X616928Y385695D01*
X556167Y311022D02*
X554855D01*
X555511D01*
Y307743D01*
X554855Y307087D01*
X554199D01*
X553543Y307743D01*
X557479Y310366D02*
X558135Y311022D01*
X559447D01*
X560103Y310366D01*
Y309710D01*
X559447Y309054D01*
X558791D01*
X559447D01*
X560103Y308399D01*
Y307743D01*
X559447Y307087D01*
X558135D01*
X557479Y307743D01*
X422309Y357873D02*
X420997D01*
X421653D01*
Y354593D01*
X420997Y353937D01*
X420341D01*
X419685Y354593D01*
X425589Y353937D02*
Y357873D01*
X423621Y355905D01*
X426245D01*
X433465Y477164D02*
X436088Y473228D01*
Y477164D02*
X433465Y473228D01*
X440024D02*
X437400D01*
X440024Y475852D01*
Y476508D01*
X439368Y477164D01*
X438056D01*
X437400Y476508D01*
X491207Y431888D02*
X488583D01*
Y429921D01*
X489895Y430577D01*
X490551D01*
X491207Y429921D01*
Y428609D01*
X490551Y427953D01*
X489239D01*
X488583Y428609D01*
X492518Y431888D02*
Y429265D01*
X493830Y427953D01*
X495142Y429265D01*
Y431888D01*
X496454Y427297D02*
X499078D01*
X500390Y431888D02*
Y428609D01*
X501046Y427953D01*
X502358D01*
X503014Y428609D01*
Y431888D01*
X506950Y431233D02*
X506293Y431888D01*
X504982D01*
X504326Y431233D01*
Y430577D01*
X504982Y429921D01*
X506293D01*
X506950Y429265D01*
Y428609D01*
X506293Y427953D01*
X504982D01*
X504326Y428609D01*
X508261Y431888D02*
Y427953D01*
X510229D01*
X510885Y428609D01*
Y429265D01*
X510229Y429921D01*
X508261D01*
X510229D01*
X510885Y430577D01*
Y431233D01*
X510229Y431888D01*
X508261D01*
X627559Y474802D02*
Y472178D01*
X628871Y470866D01*
X630183Y472178D01*
Y474802D01*
X631495D02*
Y470866D01*
X633463D01*
X634119Y471522D01*
Y472178D01*
X633463Y472834D01*
X631495D01*
X633463D01*
X634119Y473490D01*
Y474146D01*
X633463Y474802D01*
X631495D01*
X635430D02*
Y471522D01*
X636087Y470866D01*
X637398D01*
X638054Y471522D01*
Y474802D01*
X641990Y474146D02*
X641334Y474802D01*
X640022D01*
X639366Y474146D01*
Y473490D01*
X640022Y472834D01*
X641334D01*
X641990Y472178D01*
Y471522D01*
X641334Y470866D01*
X640022D01*
X639366Y471522D01*
X414961Y421390D02*
X415617Y422046D01*
X416928D01*
X417585Y421390D01*
Y420734D01*
X416928Y420078D01*
X416272D01*
X416928D01*
X417585Y419422D01*
Y418766D01*
X416928Y418110D01*
X415617D01*
X414961Y418766D01*
X418896Y422046D02*
Y419422D01*
X420208Y418110D01*
X421520Y419422D01*
Y422046D01*
X422832Y421390D02*
X423488Y422046D01*
X424800D01*
X425456Y421390D01*
Y420734D01*
X424800Y420078D01*
X424144D01*
X424800D01*
X425456Y419422D01*
Y418766D01*
X424800Y418110D01*
X423488D01*
X422832Y418766D01*
X415222Y405511D02*
X412598D01*
Y401575D01*
X415222D01*
X412598Y403543D02*
X413910D01*
X416534Y401575D02*
Y405511D01*
X418502D01*
X419158Y404855D01*
Y403543D01*
X418502Y402887D01*
X416534D01*
X417846D02*
X419158Y401575D01*
X420470D02*
Y405511D01*
X422438D01*
X423094Y404855D01*
Y403543D01*
X422438Y402887D01*
X420470D01*
X421782D02*
X423094Y401575D01*
X426373Y405511D02*
X425062D01*
X424406Y404855D01*
Y402231D01*
X425062Y401575D01*
X426373D01*
X427030Y402231D01*
Y404855D01*
X426373Y405511D01*
X428341Y401575D02*
Y405511D01*
X430309D01*
X430965Y404855D01*
Y403543D01*
X430309Y402887D01*
X428341D01*
X429653D02*
X430965Y401575D01*
X440945Y377164D02*
X443569D01*
X442257D01*
Y373228D01*
X444881Y377164D02*
X447504Y373228D01*
Y377164D02*
X444881Y373228D01*
X431102D02*
Y377164D01*
X433070D01*
X433726Y376508D01*
Y375196D01*
X433070Y374540D01*
X431102D01*
X432414D02*
X433726Y373228D01*
X435038Y377164D02*
X437662Y373228D01*
Y377164D02*
X435038Y373228D01*
X434514Y345406D02*
X433858Y346062D01*
X432546D01*
X431890Y345406D01*
Y344750D01*
X432546Y344094D01*
X433858D01*
X434514Y343438D01*
Y342782D01*
X433858Y342126D01*
X432546D01*
X431890Y342782D01*
X435825Y346062D02*
X437137D01*
X436482D01*
Y342126D01*
X435825D01*
X437137D01*
X441729Y345406D02*
X441073Y346062D01*
X439761D01*
X439105Y345406D01*
Y342782D01*
X439761Y342126D01*
X441073D01*
X441729Y342782D01*
Y344094D01*
X440417D01*
X431102Y333858D02*
X433726D01*
X432414Y335170D02*
Y332546D01*
X437662Y335825D02*
X435038D01*
Y333858D01*
X436350Y334514D01*
X437006D01*
X437662Y333858D01*
Y332546D01*
X437006Y331890D01*
X435694D01*
X435038Y332546D01*
X438974Y335825D02*
Y333202D01*
X440286Y331890D01*
X441598Y333202D01*
Y335825D01*
X434120Y325327D02*
X433464Y325983D01*
X432152D01*
X431496Y325327D01*
Y322703D01*
X432152Y322047D01*
X433464D01*
X434120Y322703D01*
Y324015D01*
X432808D01*
X435432Y322047D02*
Y325983D01*
X438056Y322047D01*
Y325983D01*
X439367D02*
Y322047D01*
X441335D01*
X441991Y322703D01*
Y325327D01*
X441335Y325983D01*
X439367D01*
X506563Y310892D02*
X505907Y310236D01*
Y308924D01*
X506563Y308268D01*
X507219D01*
X507875Y308924D01*
Y310236D01*
X508531Y310892D01*
X509187D01*
X509842Y310236D01*
Y308924D01*
X509187Y308268D01*
X506563Y314827D02*
X505907Y314171D01*
Y312859D01*
X506563Y312203D01*
X509187D01*
X509842Y312859D01*
Y314171D01*
X509187Y314827D01*
X505907Y316139D02*
X509842D01*
Y318763D01*
X514437Y310911D02*
X513781Y310255D01*
Y308943D01*
X514437Y308287D01*
X515093D01*
X515749Y308943D01*
Y310255D01*
X516405Y310911D01*
X517061D01*
X517717Y310255D01*
Y308943D01*
X517061Y308287D01*
X513781Y312223D02*
X517717D01*
Y314191D01*
X517061Y314847D01*
X514437D01*
X513781Y314191D01*
Y312223D01*
X517717Y316159D02*
X515093D01*
X513781Y317471D01*
X515093Y318783D01*
X517717D01*
X515749D01*
Y316159D01*
X525591Y308268D02*
X522967D01*
X521655Y309580D01*
X522967Y310892D01*
X525591D01*
X523623D01*
Y308268D01*
X521655Y312204D02*
X525591D01*
Y314171D01*
X524935Y314827D01*
X522311D01*
X521655Y314171D01*
Y312204D01*
X522311Y318763D02*
X521655Y318107D01*
Y316795D01*
X522311Y316139D01*
X524935D01*
X525591Y316795D01*
Y318107D01*
X524935Y318763D01*
X530697Y310911D02*
X530041Y310255D01*
Y308943D01*
X530697Y308287D01*
X533320D01*
X533976Y308943D01*
Y310255D01*
X533320Y310911D01*
X532009D01*
Y309599D01*
X533976Y312223D02*
X530041D01*
X533976Y314847D01*
X530041D01*
Y316159D02*
X533976D01*
Y318127D01*
X533320Y318783D01*
X530697D01*
X530041Y318127D01*
Y316159D01*
X539371Y307874D02*
Y310498D01*
X538059Y309186D02*
X540683D01*
X538059Y311810D02*
X537403Y312466D01*
Y313778D01*
X538059Y314434D01*
X538715D01*
X539371Y313778D01*
Y313122D01*
Y313778D01*
X540027Y314434D01*
X540683D01*
X541339Y313778D01*
Y312466D01*
X540683Y311810D01*
X537403Y315745D02*
X540027D01*
X541339Y317057D01*
X540027Y318369D01*
X537403D01*
X538059Y319681D02*
X537403Y320337D01*
Y321649D01*
X538059Y322305D01*
X538715D01*
X539371Y321649D01*
Y320993D01*
Y321649D01*
X540027Y322305D01*
X540683D01*
X541339Y321649D01*
Y320337D01*
X540683Y319681D01*
X547638Y307874D02*
Y310498D01*
X546326Y309186D02*
X548950D01*
X545671Y314434D02*
Y311810D01*
X547638D01*
X546982Y313122D01*
Y313778D01*
X547638Y314434D01*
X548950D01*
X549606Y313778D01*
Y312466D01*
X548950Y311810D01*
X545671Y315745D02*
X548294D01*
X549606Y317057D01*
X548294Y318369D01*
X545671D01*
X419553Y376508D02*
X418897Y377164D01*
X417585D01*
X416929Y376508D01*
Y373884D01*
X417585Y373228D01*
X418897D01*
X419553Y373884D01*
Y375196D01*
X418241D01*
X420865Y373228D02*
Y377164D01*
X423489Y373228D01*
Y377164D01*
X424801D02*
Y373228D01*
X426768D01*
X427424Y373884D01*
Y376508D01*
X426768Y377164D01*
X424801D01*
M02*
